<?xml version="1.0" encoding="iso-8859-1"?>
<!-- Generator: Adobe Illustrator 19.0.0, SVG Export Plug-In . SVG Version: 6.00 Build 0)  -->
<svg version="1.1" id="Capa_1" xmlns="http://www.w3.org/2000/svg" xmlns:xlink="http://www.w3.org/1999/xlink" x="0px" y="0px"
	 viewBox="0 0 511.957 511.957" style="enable-background:new 0 0 511.957 511.957;" xml:space="preserve">
<path style="fill:#FFD15C;" d="M372.267,200.432v20.267c0,0,3.2,12.8-4.267,19.2s-17.067,4.267-17.067,4.267s5.333,16-4.267,22.4
	c-9.6,6.4-18.133,2.133-18.133,2.133s1.067,8.533-4.267,13.867c-6.4,5.333-18.133,2.133-18.133,2.133s0,10.667-6.4,12.8
	c-5.333,3.2-14.933,2.133-22.4-2.133c-7.467-5.333-73.6-26.667-73.6-26.667L192,255.899l-22.4-14.933c0,0-21.333-12.8-32-17.067
	c-10.667-4.267-62.933-32-62.933-32l52.267-73.6l57.6,17.067l64-21.333c6.4-2.133,13.867-2.133,20.267,1.067l42.667,20.267
	L372.267,200.432z"/>
<path style="fill:#F7B64C;" d="M407.467,94.832c-22.4,13.867-45.867,29.867-49.067,32c-6.4,5.333-13.867,11.733-18.133,11.733
	c-3.2,1.067-4.267,1.067-12.8-2.133c-8.533-3.2-23.467-6.4-25.6-8.533c-3.2-2.133-11.733-8.533-19.2-7.467
	c-7.467,1.067-8.533,4.267-12.8,5.333s-18.133,5.333-21.333,6.4c-3.2,1.067-10.667,7.467-10.667,17.067
	c0,0-4.267,14.933-4.267,18.133l-3.2,13.867c0,0,23.467,20.267,39.467-22.4c0,0,6.4-2.133,8.533-3.2
	c2.133-1.067,11.733,1.067,18.133,3.2s22.4,10.667,32,18.133c9.6,8.533,41.6,34.133,43.733,43.733c0,0,10.667-9.6,13.867-16
	c2.133-4.267,16-14.933,30.933-23.467L407.467,94.832z"/>
<path style="fill:#E8EAE9;" d="M230.4,181.232c0,0,5.333,3.2,16-2.133c0,0,4.267-9.6,4.267-12.8s-3.2-5.333-6.4-5.333
	s-6.4,2.133-7.467,4.267C234.667,167.366,230.4,176.966,230.4,181.232z"/>
<path style="fill:#F7B64C;" d="M283.733,280.432c-1.067,4.267-6.4,13.867-9.6,19.2c-2.133,3.2-5.333,5.333-9.6,4.267
	c-2.133,0-4.267-1.067-6.4-2.133c-7.467-4.267-7.467-11.733-7.467-11.733s-5.333,4.267-14.933,2.133
	c-8.533-2.133-14.933-7.467-17.067-10.667c0,0-7.467,7.467-12.8,4.267c-5.333-3.2-18.133-7.467-12.8-27.733c0,0-6.4,5.333-16,2.133
	c-8.533-4.267-10.667-12.8-8.533-19.2c0,0,8.533,6.4,12.8,7.467c4.267,1.067,11.733,7.467,12.8,9.6
	c1.067,1.067,3.2,4.267,4.267,4.267c0,0,9.6-9.6,19.2-9.6c9.6,0,16,5.333,17.067,9.6c1.067,4.267-3.2,9.6-3.2,9.6
	s9.6-7.467,12.8-11.733c3.2-4.267,8.533-6.4,16-4.267c7.467,2.133,8.533,10.667,7.467,14.933
	C275.2,262.299,286.933,269.766,283.733,280.432z"/>
<g>
	<path style="fill:#E8EAE9;" d="M248.533,275.099c0,0,3.2,4.267,8.533,0c5.333-4.267,8.533-7.467,8.533-9.6
		c1.067-2.133-4.267-7.467-8.533-9.6c0,0-3.2,1.067-5.333,3.2C248.533,263.366,244.267,270.832,248.533,275.099z"/>
	<path style="fill:#E8EAE9;" d="M273.067,270.832c1.067-1.067,6.4,3.2,9.6,7.467c0,0-5.333,8.533-10.667,9.6
		c-4.267,1.067-6.4-1.067-6.4-1.067s-2.133-2.133,0-7.467C267.733,275.099,273.067,270.832,273.067,270.832z"/>
	<path style="fill:#E8EAE9;" d="M215.467,272.966c0,0,5.333,3.2,10.667-1.067s6.4-6.4,6.4-6.4c1.067,0-4.267-7.467-10.667-9.6
		c0,0-5.333,3.2-8.533,8.533C211.2,269.766,215.467,272.966,215.467,272.966z"/>
</g>
<g>
	<path style="fill:#F7B64C;" d="M349.867,244.166c0,0-2.133-1.067-4.267-2.133c-1.067-1.067-2.133-1.067-4.267-2.133
		c-1.067-1.067-3.2-2.133-4.267-3.2c-3.2-2.133-5.333-5.333-7.467-7.467c-1.067-1.067-1.067-2.133-2.133-3.2
		c0-1.067-1.067-1.067-1.067-1.067s0,0,1.067,1.067c1.067,0,1.067,1.067,2.133,2.133c1.067,0,1.067,1.067,2.133,1.067
		c1.067,0,1.067,1.067,2.133,1.067c1.067,1.067,3.2,2.133,4.267,3.2c1.067,1.067,3.2,2.133,4.267,3.2
		c1.067,1.067,2.133,2.133,3.2,3.2C348.8,243.099,349.867,244.166,349.867,244.166z"/>
	<path style="fill:#F7B64C;" d="M327.467,268.699c0,0-2.133-1.067-4.267-2.133c-1.067-1.067-3.2-2.133-4.267-3.2
		c-1.067-1.067-3.2-2.133-4.267-3.2c-1.067-1.067-1.067-1.067-2.133-2.133s-1.067-1.067-2.133-2.133
		c-1.067-1.067-2.133-2.133-3.2-3.2c-2.133-2.133-3.2-3.2-3.2-3.2s2.133,1.067,4.267,2.133c1.067,1.067,3.2,2.133,4.267,3.2
		c1.067,1.067,1.067,1.067,2.133,2.133c1.067,1.067,1.067,1.067,2.133,2.133c1.067,1.067,3.2,2.133,4.267,4.267
		c1.067,1.067,2.133,2.133,3.2,3.2C326.4,267.632,327.467,268.699,327.467,268.699z"/>
	<path style="fill:#F7B64C;" d="M304,284.699c0,0-1.067,0-3.2-1.067c-1.067,0-2.133-1.067-3.2-1.067
		c-1.067-1.067-2.133-1.067-3.2-2.133c-1.067,0-1.067-1.067-2.133-1.067s-1.067-1.067-1.067-1.067l-1.067-1.067l-1.067-1.067
		c-1.067-2.133-2.133-3.2-2.133-3.2s1.067,1.067,3.2,2.133l1.067,1.067l1.067,1.067c1.067,1.067,2.133,1.067,3.2,2.133
		c1.067,1.067,2.133,1.067,3.2,2.133c1.067,1.067,2.133,1.067,3.2,2.133C302.933,283.632,304,284.699,304,284.699z"/>
</g>
<rect x="342.171" y="142.569" transform="matrix(0.495 0.8689 -0.8689 0.495 340.9175 -256.6345)" style="fill:#E8EAE9;" width="98.134" height="44.8"/>
<rect x="383.269" y="83.862" transform="matrix(0.8689 -0.495 0.495 0.8689 -17.5501 234.7962)" style="fill:#415A6B;" width="102.401" height="133.334"/>
<circle style="fill:#344A5E;" cx="436.267" cy="192.966" r="13.867"/>
<rect x="78.232" y="145.655" transform="matrix(-0.4179 0.9085 -0.9085 -0.4179 345.9122 120.8732)" style="fill:#E8EAE9;" width="112.001" height="51.2"/>
<rect x="26.477" y="85.271" transform="matrix(-0.9085 -0.4179 0.4179 -0.9085 94.1963 342.635)" style="fill:#415A6B;" width="116.267" height="151.468"/>
<circle style="fill:#344A5E;" cx="86.4" cy="207.899" r="16"/>
<g>
	<polygon style="fill:#F3F3F3;" points="0,363.632 298.667,444.699 507.733,383.899 211.2,329.499 	"/>
	<polygon style="fill:#F3F3F3;" points="0,363.632 298.667,444.699 507.733,383.899 211.2,329.499 	"/>
</g>
<g>
	<polygon style="fill:#ADB3BA;" points="421.333,380.699 412.8,378.566 258.133,421.232 264.533,422.299 	"/>
	<polygon style="fill:#ADB3BA;" points="370.133,371.099 215.467,409.499 222.933,411.632 379.733,372.166 	"/>
	<polygon style="fill:#ADB3BA;" points="327.467,362.566 173.867,397.766 181.333,399.899 337.067,364.699 	"/>
	<polygon style="fill:#ADB3BA;" points="284.8,355.099 132.267,387.099 139.733,389.232 294.4,357.232 	"/>
</g>
<polygon style="fill:#F3705A;" points="177.067,363.632 98.133,377.499 89.6,375.366 168.533,360.432 "/>
<g>
	<path style="fill:#415A6B;" d="M385.067,358.299c0-1.067-1.067-2.133-2.133-2.133l-9.6-2.133c-2.133,0-2.133,14.933-2.133,14.933
		l11.733-1.067c1.067,0,2.133-1.067,2.133-2.133L385.067,358.299L385.067,358.299z"/>
	<path style="fill:#415A6B;" d="M372.267,367.899l-67.2-2.133c-27.733-1.067-55.467-5.333-83.2-13.867l0,0v-3.2l29.867-1.067
		c8.533,0,16,0,24.533,0l97.067,5.333L372.267,367.899"/>
</g>
<path id="SVGCleanerId_0" style="fill:#FFD15C;" d="M217.6,349.766L217.6,349.766l5.333,2.133v-3.2L217.6,349.766z"/>
<path style="fill:#F3705A;" d="M249.6,348.699h-26.667v3.2l0,0c8.533,2.133,18.133,5.333,26.667,6.4V348.699z"/>
<g>
	<path id="SVGCleanerId_0_1_" style="fill:#FFD15C;" d="M217.6,349.766L217.6,349.766l5.333,2.133v-3.2L217.6,349.766z"/>
</g>
<g>
	<path style="fill:#F3705A;" d="M370.133,368.966h3.2c0,0-1.067-7.467,0-10.667c0-3.2,1.067-4.267,2.133-4.267H374.4
		c0,0-1.067,1.067-2.133,5.333c0,3.2,0,9.6,0,9.6H370.133z"/>
	<path style="fill:#F3705A;" d="M312.533,365.766L312.533,365.766c0,1.067,1.067,2.133,2.133,2.133c2.133,0,8.533,0,14.933,1.067
		c7.467,1.067,36.267,3.2,39.467,3.2c3.2,0,4.267-1.067,4.267-3.2c0-1.067-1.067-2.133-1.067-3.2c0,0,0,0-2.133,1.067
		c-2.133,0-23.467-1.067-30.933-3.2s-18.133-3.2-24.533,0C312.533,363.632,312.533,364.699,312.533,365.766z"/>
	<path style="fill:#F3705A;" d="M393.6,362.566L393.6,362.566c0,2.133-2.133,3.2-3.2,3.2h-4.267v-7.467h4.267
		C392.533,358.299,393.6,360.432,393.6,362.566z"/>
</g>
<g>
	<path style="fill:#55C0EB;" d="M92.8,362.566h5.333c3.2,1.067,5.333,1.067,5.333,1.067c1.067,0,0,1.067-2.133,1.067s-5.333,0-9.6,0
		s-8.533-1.067-13.867-1.067c-5.333-1.067-8.533-1.067-10.667-2.133c-2.133-1.067-1.067-1.067,1.067-1.067s4.267,0,8.533,0
		c2.133,0,4.267,0,7.467,1.067l-2.133,1.067c-2.133,0-3.2,0-5.333,0c-1.067,0-3.2,0-3.2,0c-1.067,0-1.067,0,0,1.067
		s4.267-1.067,7.467-1.067c4.267,1.067,7.467,1.067,9.6,1.067s4.267,0,5.333,0c1.067,0,1.067,0,1.067-1.067
		C97.067,363.632,94.933,362.566,92.8,362.566z"/>
	<path style="fill:#55C0EB;" d="M98.133,360.432c-3.2,0-5.333-1.067-7.467-1.067c-1.067,0-2.133-1.067-3.2-1.067
		s-1.067-1.067-1.067-1.067s1.067,0,2.133-1.067c2.133,0,5.333,0,9.6,0s9.6,1.067,13.867,1.067c5.333,1.067,8.533,1.067,9.6,2.133
		c1.067,1.067,1.067,1.067-1.067,1.067c-2.133,0-5.333,0-9.6,0C107.733,361.499,103.467,361.499,98.133,360.432z M101.333,360.432
		c3.2,1.067,6.4,1.067,9.6,1.067c3.2,0,4.267,0,6.4,0c1.067,0,1.067,0,0-1.067c-1.067,0-3.2-1.067-7.467-1.067
		c-3.2-1.067-6.4-1.067-9.6-1.067c-2.133,0-4.267,0-6.4,0c-1.067,0-1.067,0,0,1.067C94.933,359.366,97.067,359.366,101.333,360.432z
		"/>
	<path style="fill:#55C0EB;" d="M135.467,359.366l-32-4.267h3.2l27.733,2.133l-21.333-3.2h3.2l32,4.267h-3.2l-27.733-2.133
		l21.333,3.2H135.467z"/>
	<path style="fill:#55C0EB;" d="M158.933,356.166l-26.667-4.267L128,352.966l-5.333-1.067l12.8-2.133l5.333,1.067l-5.333,1.067
		l26.667,4.267H158.933z"/>
	<path style="fill:#55C0EB;" d="M172.8,354.032l-32-4.267l6.4-1.067c2.133,0,3.2,0,4.267,0c1.067,0,3.2,0,5.333,0
		s4.267,0,5.333,1.067c2.133,0,4.267,1.067,5.333,1.067c1.067,0,1.067,1.067,0,1.067c1.067,0,3.2,0,4.267,0c1.067,0,4.267,0,7.467,0
		l8.533,1.067l-4.267-1.067h-9.6c-3.2,0-5.333,0-6.4,0s-2.133,0-2.133,0c-1.067,0-1.067,0-2.133,0h-1.067L176,354.032H172.8z
		 M156.8,350.832h2.133c1.067,0,2.133,0,2.133,0l0,0c0,0-1.067,0-2.133,0s-2.133,0-3.2,0c-1.067,0-2.133,0-2.133,0s-1.067,0-2.133,0
		h-2.133H156.8z"/>
	<path style="fill:#55C0EB;" d="M206.933,348.699h-4.267l-8.533-1.067l-6.4,1.067l6.4,1.067h-3.2l-25.6-5.333h3.2L206.933,348.699z
		 M187.733,347.632l-13.867-1.067l9.6,2.133L187.733,347.632z"/>
	<path style="fill:#55C0EB;" d="M210.133,344.432h5.333c3.2,1.067,5.333,1.067,5.333,1.067c1.067,0,0,1.067-2.133,1.067
		s-5.333,0-9.6,0s-8.533-1.067-13.867-1.067c-5.333-1.067-8.533-1.067-10.667-2.133c-2.133-1.067-1.067-1.067,1.067-1.067
		s4.267,0,8.533,0c2.133,0,4.267,0,7.467,1.067l-2.133,1.067c-2.133,0-3.2,0-5.333,0c-1.067,0-3.2,0-3.2,0c-1.067,0-1.067,0,0,1.067
		c1.067,0,3.2,1.067,7.467,1.067c4.267,1.067,7.467,1.067,9.6,1.067s4.267,0,5.333,0s1.067,0,1.067-1.067
		C213.333,345.499,212.267,344.432,210.133,344.432z"/>
	<path style="fill:#55C0EB;" d="M235.733,344.432l-26.667-4.267l-5.333,1.067l-5.333-1.067l12.8-2.133l5.333,1.067l-4.267,1.067
		l26.667,4.267H235.733z"/>
</g>
<g>
</g>
<g>
</g>
<g>
</g>
<g>
</g>
<g>
</g>
<g>
</g>
<g>
</g>
<g>
</g>
<g>
</g>
<g>
</g>
<g>
</g>
<g>
</g>
<g>
</g>
<g>
</g>
<g>
</g>
</svg>
