<?xml version="1.0" encoding="iso-8859-1"?>
<!-- Generator: Adobe Illustrator 19.0.0, SVG Export Plug-In . SVG Version: 6.00 Build 0)  -->
<svg version="1.1" id="Capa_1" xmlns="http://www.w3.org/2000/svg" xmlns:xlink="http://www.w3.org/1999/xlink" x="0px" y="0px"
	 viewBox="0 0 513.44 513.44" style="enable-background:new 0 0 513.44 513.44;" xml:space="preserve">
<polygon style="fill:#F3705A;" points="287.736,198.773 310.136,275.573 341.07,257.44 334.67,198.773 "/>
<path style="fill:#344A5E;" d="M495.736,142.24L495.736,142.24L495.736,142.24c3.2,0,5.333,6.4,4.267,14.933
	c0,8.533-2.133,14.933-5.333,14.933l0,0l-30.933,1.067l0,0c-3.2,0-4.267-6.4-4.267-14.933s2.133-14.933,5.333-14.933l0,0l0,0
	L495.736,142.24z"/>
<path style="fill:#415A6B;" d="M472.27,93.173c4.267,8.533,8.533,30.933,8.533,64c0,34.133-5.333,56.533-9.6,64
	c-4.267-8.533-8.533-30.933-8.533-64C462.67,123.04,468.003,101.707,472.27,93.173 M472.27,81.44
	c-9.6,0-17.067,34.133-17.067,75.733s7.467,75.733,17.067,75.733l0,0c9.6,0,17.067-34.133,17.067-75.733S481.87,81.44,472.27,81.44
	L472.27,81.44L472.27,81.44z"/>
<path style="fill:#CED6E0;" d="M472.27,93.173L472.27,93.173c-34.133,20.267-73.6,30.933-113.067,30.933h-12.8v70.4h26.667
	c30.933,0,64,8.533,90.667,23.467l8.533,4.267c4.267-8.533,8.533-30.933,9.6-64C480.803,123.04,475.47,101.707,472.27,93.173z"/>
<path style="fill:#F3705A;" d="M352.803,125.173v67.2c0,3.2-3.2,6.4-6.4,6.4H283.47c-3.2,0-6.4-3.2-6.4-6.4v-67.2
	c0-3.2,3.2-6.4,6.4-6.4h62.933C350.67,118.773,352.803,121.973,352.803,125.173z"/>
<g>
	<rect x="289.87" y="132.64" style="fill:#F05540;" width="50.133" height="10.667"/>
	<rect x="289.87" y="153.973" style="fill:#F05540;" width="50.133" height="10.667"/>
	<rect x="289.87" y="174.24" style="fill:#F05540;" width="50.133" height="10.667"/>
</g>
<g>
	<path style="fill:#FFD15C;" d="M321.87,206.24c0,0-5.333,3.2-11.733,6.4c-6.4,2.133-16,8.533-16,8.533l-1.067-3.2
		c0,0-10.667,2.133-12.8,8.533c-3.2,6.4-6.4,29.867-6.4,38.4s-8.533,25.6-10.667,39.467c-2.133,13.867-3.2,35.2-7.467,46.933
		c-3.2,11.733-22.4,50.133-22.4,50.133l59.733,30.933c0,0,11.733-81.067,12.8-101.333c1.067-20.267,9.6-34.133,9.6-34.133
		s13.867,0,24.533-19.2c10.667-19.2,10.667-18.133,10.667-21.333c0-3.2-2.133-5.333-5.333-5.333c0,0,6.4-5.333,2.133-9.6
		s-7.467-3.2-7.467-3.2s6.4-4.267,4.267-9.6c-1.067-5.333-8.533-7.467-10.667-6.4c0,0,8.533-4.267,7.467-10.667
		C340.003,205.173,328.27,203.04,321.87,206.24z"/>
	
		<ellipse transform="matrix(-0.3332 -0.9429 0.9429 -0.3332 72.2795 273.6986)" style="fill:#FFD15C;" cx="132.923" cy="111.29" rx="25.601" ry="16.001"/>
	<path style="fill:#FFD15C;" d="M177.87,207.307c0,0-14.933,49.067-17.067,81.067l-87.467-61.867c0,0,13.867-8.533,18.133-66.133
		c5.333-56.533,5.333-56.533,5.333-56.533s50.133-109.867,104.533-73.6c0,0,25.6,35.2,27.733,55.467c0,0,1.067,8.533-2.133,11.733
		c0,0,11.733,22.4,12.8,28.8c1.067,6.4-1.067,8.533-4.267,9.6c-2.133,1.067-7.467,2.133-7.467,2.133s1.067,6.4,6.4,14.933
		c5.333,8.533-4.267,10.667-6.4,10.667c0,0,4.267,3.2,1.067,10.667C212.003,177.44,236.536,216.907,177.87,207.307z"/>
</g>
<path style="fill:#344A5E;" d="M160.803,118.773l11.733-3.2c0,0-7.467-17.067-2.133-27.733c5.333-10.667,21.333-13.867,17.067-25.6
	c-4.267-11.733-20.267-29.867-9.6-28.8c10.667,1.067,27.733,8.533,37.333,5.333c9.6-3.2,10.667-24.533,0-30.933
	c-10.667-7.467-43.733-9.6-72.533-6.4s-54.4,12.8-64,34.133s-3.2,57.6,5.333,72.533s8.533,52.267,8.533,52.267
	s21.333-1.067,22.4-25.6c1.067-24.533,3.2-39.467,16-41.6C143.736,91.04,156.536,100.64,160.803,118.773z"/>
<path style="fill:#8AD7F8;" d="M81.87,214.773c0,0,26.667,6.4,43.733,22.4s39.467,33.067,40.533,16c0,0,19.2,23.467,32,58.667
	c12.8,35.2,32,135.467,28.8,201.6H26.403c0,0,1.067-87.467-7.467-116.267c-7.467-28.8-9.6-58.667,5.333-102.4
	C39.203,251.04,81.87,214.773,81.87,214.773z"/>
<g>
	<path style="fill:#55C0EB;" d="M102.136,420.64l-13.867,7.467c0,0-7.467,12.8,28.8-5.333
		C154.403,404.64,102.136,420.64,102.136,420.64z"/>
	<path style="fill:#55C0EB;" d="M199.203,363.04c0,0-12.8-8.533-16-17.067c-3.2-8.533-17.067-13.867-33.067-20.267
		s9.6-1.067,18.133,3.2c8.533,4.267,8.533,4.267,8.533,4.267s-18.133-11.733-28.8-16c-10.667-4.267-9.6-9.6-1.067-5.333
		c8.533,4.267,25.6,14.933,25.6,14.933s-30.933-30.933-39.467-35.2c-8.533-4.267-17.067-6.4-24.533-6.4s4.267-5.333,14.933-1.067
		c11.733,4.267,20.267,10.667,26.667,17.067c6.4,6.4,25.6,22.4,27.733,27.733c3.2,5.333,4.267,8.533,5.333,12.8
		C184.27,345.973,199.203,363.04,199.203,363.04z"/>
	<path style="fill:#55C0EB;" d="M88.27,428.107c0,0-4.267-19.2-11.733-25.6c-7.467-6.4-10.667-6.4-17.067-19.2
		c-6.4-12.8-8.533-30.933-9.6-24.533c-1.067,6.4,5.333,23.467,9.6,28.8c0,0-11.733-12.8-12.8-20.267s-6.4,7.467,8.533,20.267
		c0,0-10.667-5.333-22.4-22.4s-17.067-34.133-13.867-22.4c3.2,11.733,12.8,36.267,38.4,50.133c0,0-17.067-1.067-26.667-16
		s-6.4,0-1.067,5.333c5.333,5.333,23.467,11.733,33.067,14.933C72.27,401.44,78.67,404.64,88.27,428.107z"/>
</g>
<path style="fill:#FFD15C;" d="M293.07,431.307c0,0-9.6,30.933-11.733,41.6c-1.067,10.667-11.733,33.067-27.733,29.867
	c-16-2.133-35.2-9.6-57.6-21.333c-20.267-9.6-68.267-39.467-93.867-61.867c9.6-5.333,21.333-10.667,27.733-12.8
	c10.667-3.2,65.067-32,69.333-44.8c0,0,24.533,20.267,34.133,37.333l49.067,2.133L293.07,431.307z"/>
<g>
</g>
<g>
</g>
<g>
</g>
<g>
</g>
<g>
</g>
<g>
</g>
<g>
</g>
<g>
</g>
<g>
</g>
<g>
</g>
<g>
</g>
<g>
</g>
<g>
</g>
<g>
</g>
<g>
</g>
</svg>
