<?xml version="1.0" encoding="iso-8859-1"?>
<!-- Generator: Adobe Illustrator 19.0.0, SVG Export Plug-In . SVG Version: 6.00 Build 0)  -->
<svg version="1.1" id="Capa_1" xmlns="http://www.w3.org/2000/svg" xmlns:xlink="http://www.w3.org/1999/xlink" x="0px" y="0px"
	 viewBox="0 0 512 512" style="enable-background:new 0 0 512 512;" xml:space="preserve">
<circle style="fill:#8AD7F8;" cx="235.172" cy="231.467" r="218.667"/>
<g>
	<path style="fill:#F3F3F3;" d="M411.172,101.333L411.172,101.333c0,1.067-1.067,1.067-1.067,2.133
		c-1.067,1.067-2.133,2.133-3.2,3.2c-1.067,0-2.133,0-3.2,0c-2.133,0-2.133-1.067-2.133-3.2c1.067,1.067,2.133,3.2,3.2,1.067
		c0-1.067,0-3.2,0-3.2c2.133,0,1.067-2.133,2.133-3.2l0,0c-4.267-5.333-9.6-11.733-13.867-17.067c0,1.067,0,2.133-1.067,3.2
		c2.133,0,3.2,1.067,4.267,3.2c0,1.067,1.067,1.067,2.133,2.133c0,1.067-1.067,2.133-2.133,4.267c-1.067-1.067-2.133-3.2-3.2-4.267
		c-3.2-3.2-7.467-5.333-12.8-6.4c-1.067,0-3.2-1.067-3.2,1.067c0,1.067,0,2.133,0,3.2s1.067,2.133,0,3.2
		c-1.067,1.067-2.133,1.067-2.133,2.133l-1.067,1.067V92.8c0-1.067,0-2.133-1.067-3.2c-1.067,1.067-2.133,2.133-3.2,3.2
		c-1.067,0-1.067,1.067-2.133,1.067c-2.133,0-4.267,0-5.333,3.2c-1.067-1.067-1.067-2.133-2.133-3.2c0-1.067,0-2.133,0-3.2l0,0
		c-1.067,1.067-1.067,1.067-2.133,2.133c-2.133-1.067-1.067,1.067-1.067,1.067c-1.067,0-2.133,0-3.2,1.067
		c-2.133,1.067-4.267,3.2-6.4,4.267c-1.067,1.067-2.133,2.133-2.133,3.2c0,2.133-1.067,3.2-2.133,3.2
		c-1.067,0-2.133-1.067-2.133-1.067c-3.2-3.2-2.133-4.267,1.067-5.333l0,0c0-4.267-2.133-5.333-8.533-5.333
		c2.133,1.067,2.133,3.2,2.133,5.333c0,1.067,0,2.133,0,2.133v1.067c1.067,1.067,1.067,2.133,1.067,4.267c0,1.067,0,2.133-1.067,3.2
		l-1.067-1.067c-1.067-2.133-3.2-2.133-4.267,0c-1.067,1.067-2.133,2.133-3.2,3.2c-2.133,1.067-2.133,2.133-1.067,4.267
		c0,1.067,1.067,2.133,1.067,3.2l0,0c-3.2-1.067-6.4-2.133-9.6-4.267c0,1.067,0,2.133,0,2.133c1.067,1.067,2.133,1.067,2.133,2.133
		l0,0c0,1.067,0,2.133,1.067,2.133c-2.133,1.067-4.267,0-5.333-1.067c-1.067-1.067-2.133-1.067-3.2-2.133
		c0-1.067-1.067-2.133-1.067-4.267c0,0,0-1.067,0-2.133s1.067-3.2-1.067-4.267c-2.133-2.133-4.267-4.267-5.333-6.4l0,0l1.067,1.067
		c2.133,1.067,4.267,2.133,6.4,3.2c2.133,1.067,4.267,1.067,6.4,2.133c2.133,1.067,3.2,0,4.267,0c2.133-1.067,4.267-3.2,4.267-5.333
		c0-3.2-2.133-6.4-5.333-7.467c-1.067,0-2.133-1.067-2.133-1.067c-1.067-1.067-3.2-3.2-4.267-4.267c0,0-1.067-1.067-2.133-1.067
		c-3.2,0-5.333-1.067-7.467-2.133c0,0,0-1.067-1.067-1.067l0,0c0,0,1.067,0,1.067,1.067c4.267-3.2,4.267-3.2,1.067-4.267
		l-1.067,1.067h-4.267c-1.067-1.067-2.133-2.133-3.2-3.2c3.2,1.067,4.267,0,5.333-2.133c-1.067-1.067-2.133-2.133-4.267-3.2
		c0,1.067-1.067,2.133-1.067,3.2c0,0,0,0-1.067,0c0-1.067,0-2.133,1.067-3.2c0,0-1.067-1.067-2.133-1.067
		c-1.067,2.133-1.067,3.2-2.133,5.333c0,0,0,0-1.067,0c0-1.067,0-2.133,0-3.2c-1.067,2.133-2.133,4.267-3.2,6.4c0,0,0,0-1.067,0
		c1.067-2.133,1.067-3.2,2.133-4.267c0-2.133-1.067-3.2-2.133-3.2l-1.067,1.067c1.067,1.067,0,2.133-1.067,2.133
		c-1.067,1.067-1.067,2.133-2.133,2.133c-1.067,0-2.133-1.067-4.267-1.067c1.067,1.067,1.067,2.133,1.067,3.2
		c-2.133-1.067-3.2,0-4.267,2.133c0-1.067,0-2.133,0-3.2c0,1.067-1.067,1.067-1.067,1.067c-2.133,0-1.067,3.2-1.067,3.2h-1.067
		c0,1.067,0,1.067,1.067,2.133c-1.067-1.067-2.133-1.067-4.267-2.133c0,1.067-1.067,2.133-1.067,4.267c1.067,0,1.067,0,2.133,0
		c1.067,2.133-1.067,3.2-2.133,4.267c1.067,0,1.067,0,2.133,1.067l0,0h-4.267V96c0-1.067-1.067-1.067-1.067-2.133
		c0,1.067,0,2.133-1.067,3.2l-1.067,1.067c-1.067,0-1.067,1.067-2.133,2.133c0,0,0,1.067-1.067,1.067
		c-3.2,1.067-1.067,4.267-3.2,6.4c-1.067,1.067-1.067,2.133-1.067,2.133v1.067V112c-1.067,1.067-2.133,1.067-1.067,3.2
		c-3.2,0-3.2,3.2-4.267,4.267c0,1.067,1.067,1.067,1.067,2.133c-1.067,0-1.067-1.067-2.133-1.067c-1.067,0-2.133,1.067-3.2,2.133
		c-1.067,1.067-2.133,1.067-3.2,2.133l1.067,1.067c-1.067,1.067-2.133,1.067-3.2,2.133c-1.067,1.067-2.133,1.067-3.2,2.133
		c0,0,1.067,0,1.067,1.067c-1.067,0-2.133,2.133-2.133,3.2c0,0,0,1.067,1.067,1.067c2.133,0,3.2,0,5.333-1.067
		c0,0-1.067,1.067-1.067,2.133c-1.067-1.067-3.2,0-4.267,0c-1.067,0-1.067,1.067,0,2.133c0,0,0,2.133,0,3.2
		c2.133-2.133,2.133-2.133,3.2-2.133c-2.133,1.067-2.133,2.133-2.133,3.2c-1.067,0-1.067,1.067-2.133,1.067l0,0
		c1.067,0,1.067,0,2.133,0c0,1.067-1.067,2.133-1.067,2.133v1.067c1.067,1.067,2.133,2.133,4.267,3.2c0,0,2.133,0,2.133-1.067
		c2.133-1.067,2.133-4.267,5.333-4.267V144c0-1.067,0-1.067,0-2.133c1.067,2.133,1.067,3.2,2.133,4.267c1.067,3.2,1.067,6.4,3.2,9.6
		c1.067,1.067,1.067,3.2-1.067,4.267c-1.067,0-2.133,1.067-3.2,1.067c1.067,1.067,2.133,2.133,3.2,3.2
		c1.067-1.067,1.067-2.133,1.067-4.267c1.067,2.133,2.133,1.067,3.2,1.067c1.067-2.133,1.067-2.133,3.2-3.2c0,0,1.067,0,1.067-1.067
		c1.067-3.2,1.067-6.4,2.133-9.6c0-1.067,1.067-3.2,2.133-3.2c1.067,0,1.067-1.067,1.067-1.067c-1.067,0-3.2,0-4.267,0
		c0,0,0,0,0-1.067c1.067,0,2.133,1.067,3.2,1.067c1.067,0,2.133-1.067,2.133-2.133c0-2.133-2.133-3.2-4.267-3.2
		c0-3.2,1.067-6.4,1.067-9.6l0,0c2.133-2.133,3.2-5.333,5.333-6.4c1.067-1.067,3.2-2.133,4.267-4.267c0,0,0-1.067,0-2.133
		c-1.067-2.133,0-3.2,1.067-5.333c0-1.067,1.067-2.133,2.133-2.133s2.133,0,4.267,0c0,0,0,0,0-1.067
		c0,1.067,1.067,1.067,1.067,2.133c1.067,1.067,1.067,2.133,1.067,3.2l-1.067,1.067l0,0c-1.067,2.133-3.2,4.267-4.267,6.4
		c0,1.067-1.067,1.067-2.133,2.133c-1.067,1.067-2.133,3.2-2.133,4.267c0,2.133,1.067,5.333,1.067,7.467c0,1.067,0,2.133,1.067,3.2
		c1.067,1.067,3.2,1.067,3.2,2.133c0,0,1.067,0,2.133,0s2.133-1.067,3.2-1.067c3.2-1.067,5.333-1.067,8.533-2.133l0,0
		c-1.067,2.133,0,2.133,1.067,2.133s2.133,1.067,2.133,1.067c-2.133,1.067-4.267,2.133-6.4,3.2
		c-2.133-1.067-5.333-1.067-8.533,1.067c-1.067,1.067-2.133,1.067-2.133,2.133s0,3.2,3.2,2.133c0,2.133,0,4.267-1.067,6.4
		c-2.133,0-3.2-2.133-4.267-3.2c-1.067,0-2.133,1.067-2.133,1.067c-1.067,2.133-2.133,4.267-1.067,7.467
		c0,1.067,0,2.133,1.067,4.267c-2.133-2.133-3.2,0-4.267,1.067c0,1.067-1.067,1.067-2.133,1.067c0-1.067-1.067-1.067-1.067-2.133
		c-3.2,0-9.6,2.133-10.667,4.267c-1.067-1.067-2.133-1.067-2.133-2.133c0-1.067,0-1.067,0-2.133c-2.133,1.067-4.267,2.133-6.4,3.2
		c0-1.067,0-1.067,0-1.067c-1.067,0-2.133,0-2.133-1.067c-1.067-1.067-1.067-3.2-1.067-4.267c1.067,1.067,1.067,1.067,2.133,2.133
		h1.067c0-1.067,0-1.067,0-2.133c-1.067,0-1.067,0-2.133,1.067c0-1.067,1.067-1.067,1.067-2.133
		c1.067-1.067,1.067-1.067,2.133-2.133c-2.133,0-2.133-1.067-2.133-2.133c0-1.067,0-2.133,0-3.2c-1.067,1.067-2.133,2.133-3.2,2.133
		c0,3.2,0,6.4,2.133,9.6v1.067c0,2.133,0,3.2,1.067,5.333l0,0c0,1.067-1.067,1.067-1.067,2.133c-2.133-1.067-3.2-1.067-4.267,0
		c0,0,0,0-1.067,0c-2.133,0-3.2,1.067-3.2,3.2c0,1.067,0,1.067-1.067,2.133l0,0v-2.133l0,0c-1.067,2.133-1.067,3.2-2.133,5.333
		c-1.067,0-3.2,1.067-4.267,2.133l-1.067,1.067c0,2.133-1.067,2.133-2.133,3.2c0,0-1.067,0-1.067,1.067
		c-1.067,1.067-2.133,1.067-3.2,0h-1.067c0,1.067,0,3.2,1.067,4.267c-1.067,0-2.133,0-3.2,0c-2.133-1.067-3.2,0-5.333,1.067
		c0,2.133,1.067,2.133,3.2,3.2c2.133,0,3.2,1.067,4.267,3.2c0,0,0,1.067,1.067,1.067c0-1.067,0,1.067,0,2.133s0,2.133,0,3.2
		c0,3.2-1.067,4.267-4.267,4.267c-4.267,0-8.533-1.067-11.733-1.067c-1.067,0-2.133,1.067-3.2,2.133v1.067v1.067
		c1.067,4.267,0,7.467-1.067,10.667c0,1.067,0,2.133,1.067,2.133c0,1.067,0,3.2,0,4.267h1.067c2.133,0,4.267-1.067,6.4,2.133
		c0,1.067,1.067,1.067,2.133,0c1.067-1.067,3.2-2.133,4.267-1.067c3.2,1.067,4.267-2.133,6.4-3.2c1.067-1.067,1.067-2.133,2.133-3.2
		c-1.067-1.067-1.067-2.133,0-3.2c1.067-3.2,4.267-4.267,6.4-5.333c1.067-1.067,2.133-1.067,1.067-3.2c0-1.067,0-2.133,1.067-3.2
		c1.067,0,3.2,0,4.267,0c1.067,0,1.067,1.067,2.133,0c2.133-1.067,3.2-2.133,5.333-3.2c1.067-1.067,1.067-1.067,2.133,0
		c1.067,0,2.133,1.067,3.2,3.2c0,1.067,1.067,2.133,2.133,3.2c0,1.067,1.067,1.067,2.133,1.067c2.133,1.067,4.267,3.2,5.333,4.267
		c1.067,1.067,2.133,1.067,3.2,2.133c0,1.067,2.133,2.133,1.067,4.267c-1.067,2.133-4.267,2.133-6.4,2.133c-1.067,0-1.067,0-2.133,0
		c0,1.067,1.067,1.067,1.067,2.133c1.067,1.067,3.2,2.133,4.267,2.133c1.067,0,1.067,0,1.067-1.067s0-2.133,0-3.2l0,0
		c1.067,0,1.067,0,1.067,0c1.067-1.067,1.067-2.133,1.067-2.133c1.067-1.067,1.067-1.067,0-2.133c0,0,0-1.067,0-2.133
		c0,0,1.067,0,2.133,0c1.067,0,1.067,1.067,2.133,2.133c-1.067-3.2-4.267-4.267-6.4-5.333v-1.067c-3.2,0-4.267-1.067-5.333-3.2
		c-1.067-1.067-1.067-2.133-3.2-3.2c-2.133-1.067-1.067-3.2-1.067-4.267c0,0,2.133-1.067,2.133-2.133c0,1.067,1.067,2.133,1.067,3.2
		c1.067-1.067,1.067-1.067,1.067-2.133c1.067,1.067,1.067,2.133,2.133,3.2c1.067,1.067,1.067,2.133,2.133,2.133
		c1.067,1.067,3.2,1.067,4.267,2.133c1.067,1.067,3.2,2.133,4.267,3.2c0,2.133,0,4.267,1.067,6.4c0,1.067,1.067,2.133,2.133,3.2
		c1.067,1.067,1.067,2.133,2.133,3.2c-1.067,2.133,1.067,5.333,4.267,4.267c0-1.067,0-1.067,0-2.133c0,0,1.067,0,1.067-1.067
		s0-1.067-1.067-2.133c1.067,0,1.067,1.067,2.133,1.067V227.2c0,0,1.067,0,1.067,1.067c-1.067-3.2-2.133-3.2-4.267-3.2
		c0-1.067,0-2.133,0-3.2c0-1.067,0-1.067,0-2.133c1.067,0,2.133,1.067,3.2,1.067c0-1.067,0-1.067,0-2.133c2.133-2.133,4.267,0,6.4,0
		c0,2.133-1.067,3.2-1.067,5.333l0,0l1.067-1.067c0,1.067,0,1.067,0,2.133s0,1.067,0,2.133h-1.067v1.067
		c1.067,0,1.067,1.067,2.133,2.133c1.067,1.067,1.067,3.2,3.2,2.133c0,0,1.067,0,1.067,1.067c2.133,2.133,3.2,1.067,4.267-1.067
		c0,0,0,0,1.067,0c1.067,0,2.133,1.067,3.2,1.067c2.133,1.067,4.267,1.067,5.333,0c0,0,1.067,0,2.133,0s2.133,0,2.133,0
		c0,1.067,0,2.133,0,3.2c0,1.067,0,2.133,0,4.267c-1.067,3.2-2.133,5.333-3.2,8.533c-1.067,2.133-4.267,3.2-5.333,2.133
		c-1.067-1.067-2.133-1.067-3.2-1.067c-1.067,0-2.133,1.067-3.2,1.067c-1.067,0-2.133,0-3.2,0c-2.133,0-4.267-1.067-6.4-1.067
		c-2.133-1.067-4.267-1.067-6.4-2.133c0,0,0,0-1.067-1.067c-1.067,0-1.067-1.067-2.133-1.067c-2.133,0-3.2,0-4.267,1.067
		c-1.067,1.067-1.067,2.133-1.067,3.2c0,0,0,1.067-1.067,2.133c-1.067,0-2.133,1.067-3.2,0c-2.133,0-4.267-1.067-5.333-2.133
		c-1.067,0-1.067-1.067-2.133-1.067c-1.067-2.133-3.2-3.2-5.333-3.2c-3.2,0-5.333-2.133-8.533-3.2
		c1.067-1.067,2.133-1.067,2.133-2.133c1.067-1.067,2.133-2.133,1.067-3.2c-1.067-1.067-1.067-2.133,0-3.2V233.6
		c-1.067,0-1.067,1.067-2.133,1.067c0-2.133-1.067-2.133-3.2-1.067c-1.067,1.067-3.2,1.067-4.267,0c-1.067,0-3.2,0-4.267,0
		c0,0-1.067,0-2.133,0c-4.267-1.067-7.467,0-10.667,2.133c-3.2,1.067-6.4,4.267-10.667,3.2h-1.067c-1.067,0-2.133,0-3.2-1.067
		c-1.067-1.067-2.133-1.067-2.133,0c-1.067,3.2-3.2,4.267-5.333,6.4c-3.2,2.133-4.267,4.267-4.267,7.467
		c0,2.133-1.067,4.267-2.133,5.333c-2.133,2.133-6.4,3.2-7.467,6.4c0,0-1.067,0-1.067,1.067l-1.067,1.067
		c-2.133,3.2-3.2,6.4-5.333,9.6c-1.067,1.067-1.067,2.133,0,4.267c1.067,1.067,1.067,2.133,1.067,3.2v1.067c0,1.067,0,3.2,0,4.267
		c0,1.067-1.067,2.133-1.067,3.2c0,2.133-1.067,3.2-2.133,3.2c1.067,1.067,2.133,3.2,2.133,5.333s1.067,2.133,2.133,3.2h1.067
		c2.133,2.133,3.2,3.2,5.333,5.333c0,1.067,1.067,1.067,1.067,2.133c0,2.133,1.067,2.133,2.133,3.2
		c2.133,2.133,4.267,3.2,7.467,5.333c2.133,1.067,5.333,3.2,8.533,1.067c2.133-1.067,5.333-1.067,8.533,0c1.067,0,2.133,0,3.2,0
		c4.267-2.133,7.467-3.2,11.733-3.2c2.133,0,4.267,1.067,4.267,3.2c0,1.067,1.067,2.133,3.2,2.133c1.067,0,2.133,0,3.2,0
		c3.2,0,5.333,2.133,4.267,5.333c0,1.067,0,3.2-1.067,4.267c0,1.067-1.067,2.133-1.067,3.2c0,1.067,0,1.067,0,2.133
		c2.133,2.133,4.267,4.267,5.333,7.467c1.067,1.067,2.133,3.2,2.133,4.267c1.067,1.067,1.067,3.2,2.133,5.333
		c0,1.067,0,2.133,0,4.267c0,1.067,0,2.133,1.067,2.133c1.067,1.067,1.067,4.267,0,5.333c-3.2,2.133-3.2,5.333-4.267,8.533
		c-1.067,3.2-1.067,6.4,1.067,8.533c4.267,5.333,5.333,10.667,6.4,17.067c0,2.133,0,5.333,2.133,7.467
		c2.133,1.067,2.133,3.2,3.2,5.333c1.067,1.067,1.067,3.2,2.133,4.267c1.067,1.067,1.067,3.2,0,4.267
		c1.067,1.067,1.067,2.133,1.067,3.2c1.067,1.067,3.2,2.133,5.333,1.067c2.133-1.067,4.267-1.067,5.333-1.067
		c3.2,0,6.4,1.067,8.533-1.067c1.067-1.067,3.2-1.067,4.267-2.133c3.2-2.133,5.333-5.333,7.467-9.6c1.067-1.067,2.133-2.133,3.2-3.2
		c2.133-2.133,2.133-4.267,2.133-6.4c0-2.133,0-2.133,1.067-3.2c1.067,0,2.133-1.067,3.2-1.067c1.067-1.067,2.133-1.067,2.133-2.133
		c0-3.2,1.067-6.4-1.067-8.533c-1.067-1.067-1.067-2.133,1.067-3.2c1.067-1.067,2.133-2.133,3.2-3.2
		c1.067-1.067,2.133-2.133,3.2-2.133c2.133-1.067,5.333-2.133,6.4-4.267c1.067-1.067,1.067-3.2,1.067-4.267
		c0-2.133-1.067-5.333,0-7.467c0-1.067,0-2.133-1.067-2.133c-2.133-2.133-3.2-4.267-2.133-6.4c0-1.067,0-2.133,0-2.133
		c-1.067-1.067-1.067-2.133-1.067-4.267c0-1.067,1.067-2.133,1.067-3.2c1.067-4.267,5.333-6.4,8.533-9.6
		c2.133-2.133,5.333-4.267,7.467-6.4c4.267-3.2,7.467-7.467,9.6-12.8c0-1.067,1.067-1.067,1.067-2.133
		c2.133-2.133,2.133-5.333,3.2-8.533c0-2.133-1.067-1.067-2.133-1.067c-1.067,0-2.133,1.067-3.2,1.067
		c-2.133,1.067-4.267,1.067-6.4,1.067s-3.2,0-5.333,1.067c0,0-1.067,0-1.067-1.067c-1.067-1.067-2.133-2.133-3.2-2.133
		c1.067-1.067,1.067-2.133,0-3.2c-1.067-1.067-2.133-2.133-3.2-3.2c-1.067-1.067-2.133-1.067-2.133-2.133
		c-2.133-1.067-3.2-2.133-3.2-4.267c0-1.067-1.067-3.2-2.133-4.267c1.067-4.267,1.067-6.4,1.067-8.533
		c0-2.133-1.067-3.2-2.133-5.333c-1.067-1.067-3.2-2.133-2.133-4.267l0,0c-1.067-1.067-2.133-3.2-3.2-4.267
		c-2.133-3.2-2.133-6.4-4.267-8.533c0,0,0-1.067-1.067-2.133c1.067,1.067,2.133,2.133,2.133,4.267c0,1.067,1.067,1.067,2.133,2.133
		c0-1.067,1.067-1.067,1.067-2.133c0,1.067,1.067,1.067,2.133,2.133c2.133,3.2,3.2,5.333,4.267,8.533c0,0,0,1.067,1.067,1.067
		c2.133,1.067,3.2,3.2,3.2,6.4c0,2.133,0,4.267,3.2,5.333c1.067,1.067,2.133,2.133,2.133,3.2c1.067,1.067,1.067,2.133,2.133,3.2
		c1.067,1.067,2.133,3.2,2.133,5.333c1.067,2.133,1.067,4.267,1.067,7.467l1.067,1.067c1.067,0,3.2,0,4.267-1.067
		c1.067,0,1.067-1.067,2.133-1.067c1.067,0,2.133-1.067,4.267-1.067c2.133-1.067,3.2-2.133,5.333-2.133
		c2.133-1.067,3.2-1.067,5.333-2.133c1.067,0,1.067-1.067,1.067-1.067c1.067-1.067,1.067-2.133,2.133-2.133
		c2.133-1.067,5.333,0,6.4-3.2h1.067c1.067-1.067,3.2-2.133,4.267-3.2c0,0,0-1.067,0-2.133s1.067-2.133,1.067-2.133
		c2.133-1.067,3.2-3.2,3.2-4.267V275.2c-2.133-2.133-3.2-3.2-5.333-4.267c-2.133,0-2.133-2.133-2.133-3.2c0-1.067,0-1.067,0-3.2
		c-2.133,2.133-3.2,3.2-5.333,5.333l-1.067,1.067c-1.067,0-3.2,0-4.267,0c0,0-1.067-1.067-1.067-2.133c0-1.067,0-2.133,0-2.133
		V265.6l0,0c0,1.067-1.067,2.133-1.067,3.2c-1.067-1.067-1.067-2.133-1.067-3.2s0-1.067-1.067-2.133s-2.133-2.133-3.2-4.267
		c-2.133-3.2-2.133-3.2,0-5.333l0,0c1.067,0,2.133,1.067,3.2,1.067c1.067,1.067,2.133,3.2,3.2,4.267l1.067,1.067
		c1.067,1.067,3.2,2.133,4.267,3.2c1.067,1.067,5.333,1.067,6.4,0s2.133-1.067,2.133,0c0,2.133,2.133,3.2,4.267,3.2
		c1.067,0,2.133,0,4.267,1.067c1.067,0,3.2,1.067,4.267,1.067c3.2,0,7.467,0,10.667-1.067h1.067c2.133,2.133,3.2,3.2,4.267,5.333
		c1.067,1.067,2.133,1.067,3.2,1.067h1.067c0,0,0,0,0,1.067c-1.067,0-2.133,1.067-4.267,2.133c1.067,1.067,2.133,1.067,3.2,2.133
		c2.133,2.133,4.267,2.133,5.333-1.067l1.067-1.067c0,1.067,0,2.133,0,3.2s0,2.133,0,3.2c0,4.267,1.067,7.467,2.133,11.733
		c2.133,5.333,5.333,10.667,7.467,16c0,1.067,1.067,2.133,1.067,2.133c1.067,1.067,2.133,1.067,2.133,0
		c0-1.067,1.067-1.067,1.067-2.133c0,0,0,0,1.067-1.067c1.067-1.067,1.067-2.133,2.133-3.2c0-3.2,2.133-6.4,1.067-9.6
		c0-1.067,0-1.067,0-2.133s1.067-1.067,1.067-1.067c1.067-1.067,3.2-2.133,4.267-3.2c3.2-2.133,6.4-5.333,9.6-7.467
		c1.067-1.067,2.133-1.067,2.133-2.133c0-2.133,2.133-2.133,3.2-3.2c1.067,1.067,1.067,1.067,2.133,0
		c3.2-13.867,4.267-28.8,4.267-43.733C453.839,182.4,437.839,137.6,411.172,101.333z"/>
	<path style="fill:#F3F3F3;" d="M141.305,35.2c1.067,1.067,1.067,1.067,1.067,2.133c0,1.067,0,2.133,0,3.2
		c1.067,2.133,1.067,4.267,2.133,6.4c0,1.067,0,2.133,1.067,3.2c2.133,1.067,3.2,3.2,0,8.533c0,0,1.067,0,1.067,1.067
		c-1.067,1.067-3.2,2.133-1.067,3.2C146.639,64,147.705,64,148.772,64c1.067-1.067,1.067-2.133,2.133-3.2
		c1.067,1.067,2.133,1.067,3.2,2.133c0,0-1.067,1.067-2.133,1.067c1.067,0,1.067,0,2.133,0c0,0,0,1.067-1.067,1.067
		c1.067,0,1.067,1.067,2.133,1.067c0,2.133,3.2,3.2,1.067,5.333c-4.267-2.133-5.333-2.133-8.533-1.067
		c1.067,3.2,3.2,4.267,6.4,4.267c1.067,0,1.067,0,2.133,0c2.133,0,2.133,0,1.067,2.133c0,1.067-1.067,2.133-1.067,2.133
		c1.067,0,1.067,0,2.133,1.067c-1.067,1.067-1.067,1.067-2.133,1.067v1.067V83.2c-1.067,0-3.2,0-3.2-1.067
		c-1.067-2.133-2.133-3.2-4.267-3.2c-1.067,1.067-1.067,1.067,0,2.133v1.067c0,0,0,1.067,1.067,2.133c0,0,1.067,0,2.133,0
		l-1.067,1.067h-1.067c0,0,0,1.067,1.067,1.067c-2.133,2.133-2.133,6.4,0,7.467c-2.133,3.2,0,5.333,1.067,8.533
		c0,0,0,1.067,1.067,2.133c0,1.067,0,1.067,1.067,2.133c0,1.067,0,2.133,0,3.2c2.133,0,2.133-3.2,4.267-3.2
		c-1.067,1.067-1.067,1.067,0,2.133c-4.267,3.2-4.267,3.2-2.133,7.467c1.067,2.133,2.133,3.2,3.2,5.333
		c1.067,1.067,1.067,2.133,1.067,3.2c1.067,1.067,2.133,2.133,3.2,3.2c0,0,0,0,0,1.067c1.067,0,3.2-1.067,4.267-1.067
		c1.067,0,1.067,0,2.133,1.067c0,1.067,1.067,1.067,1.067,2.133c0,2.133,0,2.133,2.133,1.067c1.067,0,2.133,0,3.2,0
		c0-1.067,0-1.067,0-1.067c0-1.067,1.067-1.067,1.067-2.133s1.067-3.2,1.067-4.267c1.067-2.133,0-3.2-1.067-5.333
		c1.067,0,1.067,0,2.133-1.067c0,0,0-1.067,1.067-1.067l1.067-1.067c0-1.067,2.133-1.067,1.067-2.133l0,0
		c1.067-2.133,1.067-2.133,0-3.2c1.067,0,1.067,0,2.133,0c-1.067-1.067-1.067-2.133-2.133-4.267c1.067,0,2.133,0,2.133,0
		s0-1.067,0-2.133c1.067-1.067,2.133-1.067,3.2-1.067c1.067,0,2.133,0,1.067-1.067c0,0,0,0,0-1.067s1.067-1.067,1.067-2.133h1.067
		c0,1.067-1.067,1.067-1.067,1.067v1.067c1.067,0,2.133,0,2.133,0c1.067,0,2.133-1.067,2.133-2.133
		c1.067-1.067,2.133-1.067,3.2-2.133c1.067-1.067,1.067-2.133,2.133-3.2c0,0,0-1.067,1.067-2.133c0-1.067,1.067-3.2,2.133-4.267
		c1.067,0,2.133-1.067,1.067-2.133c0,0-1.067-1.067-1.067-2.133l0,0c-1.067,2.133,0,3.2,1.067,4.267c0,0,1.067,1.067,1.067,0
		c1.067-1.067,3.2,0,4.267-2.133c1.067,0,2.133,0,2.133,0c2.133-1.067,4.267-1.067,5.333-2.133c2.133-1.067,3.2-2.133,4.267-4.267
		l1.067-1.067c1.067,0,2.133-1.067,3.2-3.2c-1.067,1.067,0,0,1.067,0l1.067-1.067c-3.2,0-5.333,0-7.467-1.067c0,0-1.067,0-2.133,0
		c-2.133,1.067-3.2,1.067-5.333,2.133l0,0c1.067-1.067,2.133-1.067,3.2-2.133l0,0c-1.067,0-3.2,0-4.267,0
		c0-1.067,1.067-2.133,1.067-3.2c1.067,0,3.2-1.067,5.333-1.067c0,0,1.067-1.067,1.067-2.133c0,0-1.067-1.067-2.133-1.067
		c-3.2,0-3.2,0-3.2-2.133c2.133,1.067,4.267,2.133,6.4,3.2c1.067,1.067,1.067,2.133,2.133,4.267c1.067,1.067,1.067,3.2,3.2,3.2
		c0,0,1.067,0,1.067-1.067l1.067,1.067c0-2.133,0-4.267,0-6.4c0-1.067-1.067-3.2-1.067-4.267l-1.067-1.067
		c-1.067,0-1.067-1.067-2.133-1.067l1.067-1.067c-1.067,0-2.133-1.067-3.2-1.067c-1.067,0-2.133-1.067-2.133-2.133
		s-2.133-2.133-3.2-1.067c1.067-1.067,2.133-1.067,3.2-2.133c-2.133,0-3.2,0-4.267-1.067c2.133-2.133,4.267-3.2,7.467-5.333
		c1.067,1.067,2.133,3.2,3.2,4.267c1.067,1.067,3.2,0,5.333,0v-8.533c-1.067,0-3.2-1.067-4.267-2.133c0-1.067,1.067-3.2,1.067-4.267
		c2.133,1.067,4.267,2.133,6.4,3.2c0-1.067,1.067-2.133,0-3.2c0-2.133-2.133-1.067-3.2-1.067V32c0,0-1.067,0-2.133,0
		c1.067-1.067,1.067-1.067,2.133-1.067c-1.067-1.067-2.133-2.133-3.2-2.133l0,0c2.133,0,3.2,2.133,5.333,3.2c0-2.133,0-3.2,0-5.333
		c0-1.067-2.133-2.133-3.2-3.2c2.133-2.133,3.2-2.133,4.267-2.133l0,0c-4.267,0-4.267-3.2-6.4-6.4c1.067,0,2.133-1.067,3.2-1.067
		h-17.067c-26.667,2.133-51.2,9.6-73.6,20.267l0,0C140.239,34.133,140.239,35.2,141.305,35.2z"/>
	<path style="fill:#F3F3F3;" d="M140.239,425.6c0-1.067,0-2.133-1.067-2.133c-1.067,0-1.067-1.067-2.133-2.133
		c2.133,0,4.267,1.067,5.333,1.067c3.2,1.067,4.267,0,6.4-2.133c2.133-2.133,3.2-5.333,6.4-7.467c1.067,0,1.067-1.067,1.067-2.133
		c1.067-2.133,1.067-3.2,3.2-5.333c2.133-2.133,3.2-4.267,2.133-7.467c0-1.067,0-2.133,1.067-3.2s2.133-2.133,3.2-3.2
		c3.2-1.067,5.333-3.2,8.533-3.2c1.067,0,2.133,0,3.2-1.067c2.133-1.067,2.133-3.2,3.2-5.333c2.133-2.133,2.133-5.333,3.2-8.533
		c1.067-2.133,0-4.267,0-6.4c0-2.133,0-4.267,2.133-5.333l1.067-1.067c1.067-1.067,2.133-3.2,3.2-4.267
		c3.2-3.2,5.333-7.467,4.267-11.733c0-1.067-1.067-2.133-2.133-2.133c-2.133,0-3.2-1.067-4.267-2.133
		c-1.067-1.067-1.067-1.067-2.133-2.133c-1.067-1.067-3.2-2.133-5.333-2.133c-2.133,0-3.2,0-5.333-1.067c-1.067,0-2.133,0-3.2,0
		c0-2.133-2.133-2.133-3.2-3.2s-2.133-1.067-4.267-1.067c-3.2,0-3.2,2.133-5.333,3.2c0,0,0,0,0-1.067l0,0
		c1.067-1.067,1.067-2.133,2.133-3.2c-1.067,0-2.133,0-3.2-1.067c-1.067,0-2.133,0-3.2,0c1.067-1.067,1.067-1.067,1.067-1.067
		c1.067-1.067,3.2-2.133,1.067-4.267v-1.067c-1.067-2.133-1.067-3.2-3.2-4.267c-3.2-2.133-6.4-4.267-9.6-3.2
		c-2.133,0-4.267,1.067-5.333-2.133h-1.067c0,0-1.067,0-1.067-1.067c-1.067-3.2-3.2-3.2-5.333-3.2c0-2.133-1.067-3.2-3.2-3.2
		c-1.067,0-2.133-1.067-1.067-2.133c-2.133,0-3.2,1.067-5.333,1.067c-1.067,0-2.133,0-3.2,0c-1.067,0-2.133-1.067-3.2-1.067
		c-1.067,0-3.2,0-3.2-1.067c0,0-1.067,0-1.067-1.067c-1.067,0-2.133-1.067-3.2-2.133v1.067l0,0c-3.2,1.067-3.2,1.067-2.133,4.267
		c0,0,0,1.067-1.067,2.133c0,0,0,0-1.067,0c0-1.067,0-2.133,0-2.133c0-1.067,0-2.133,1.067-3.2l0,0c1.067,0,1.067-1.067,2.133-1.067
		c-1.067-1.067-2.133-1.067-2.133,0c-1.067,1.067-2.133,1.067-4.267,2.133c-1.067,0-3.2,1.067-4.267,1.067
		c-1.067,0-1.067,1.067-1.067,2.133s-1.067,2.133-1.067,2.133c-2.133,1.067-3.2,2.133-4.267,2.133
		c-1.067-1.067-1.067-1.067-2.133-2.133c-1.067-1.067-3.2-1.067-5.333,0c-2.133,0-3.2,2.133-5.333,1.067
		c-1.067-1.067-2.133-3.2-3.2-4.267c0-1.067-1.067-2.133-1.067-3.2c0-2.133,0-3.2,1.067-5.333c1.067-2.133,0-4.267-3.2-4.267
		c-2.133-1.067-5.333,0-7.467,0c-1.067,0-2.133,0-3.2,0c1.067-3.2,2.133-5.333,3.2-7.467c1.067-3.2,1.067-5.333,2.133-6.4v-1.067
		c-1.067,0-2.133,0-3.2,0c-3.2,0-5.333,2.133-5.333,5.333l0,0c-1.067,1.067-1.067,2.133-2.133,2.133s-3.2,0-4.267,0
		c-2.133,1.067-4.267,0-6.4-2.133c-2.133-3.2-4.267-6.4-4.267-10.667c0-1.067,0-2.133,0-3.2s0-2.133,1.067-3.2v-1.067
		c0-1.067,0-1.067,0-2.133s0-3.2,0-3.2c1.067,0,1.067-1.067,2.133-2.133c2.133,0,3.2,0,3.2-2.133c1.067,0,1.067,0,2.133,0
		c2.133,0,4.267-1.067,6.4,0c2.133,1.067,4.267,0,6.4,1.067c0-1.067,0-2.133-1.067-3.2c0,0-1.067,0-2.133,0h1.067
		c2.133,0,4.267,0,6.4,0c1.067,0,2.133,1.067,3.2,1.067c1.067,0,2.133,1.067,2.133,0c2.133-1.067,4.267,0,4.267,3.2
		c0,1.067,0,3.2,1.067,4.267c1.067,2.133,2.133,3.2,3.2,5.333c1.067,0,2.133-1.067,2.133-2.133c0-1.067,0-3.2,0-4.267
		c-1.067-3.2-2.133-5.333-3.2-7.467c0-1.067,1.067-5.333,2.133-6.4c1.067-1.067,2.133-2.133,3.2-3.2c0,0,0-1.067,1.067-1.067
		c2.133-1.067,4.267-2.133,5.333-3.2c0-1.067,0-1.067,0-1.067c1.067,0,1.067-1.067,2.133-1.067l0,0c-1.067,0-1.067,0-2.133-1.067
		c1.067,0,1.067,0,2.133-1.067c-1.067-2.133-1.067-4.267-2.133-6.4l0,0c0-1.067,0-2.133,0-3.2c1.067,1.067,1.067,2.133,1.067,3.2
		c0,1.067,0,2.133,1.067,3.2c1.067-2.133,3.2-4.267,1.067-6.4c2.133,0,2.133,0,3.2,0c1.067-1.067,2.133-3.2,2.133-5.333
		c1.067,0,3.2-1.067,4.267-1.067c0,0,0,0,0-1.067c-1.067,0-2.133,0-2.133,1.067c0,0,0,0,0-1.067
		c2.133-1.067,5.333-1.067,7.467-2.133c0-1.067-1.067-2.133-1.067-3.2c1.067-2.133,1.067-4.267,3.2-4.267
		c1.067,0,1.067-1.067,2.133-2.133c2.133,1.067,3.2,0,4.267-2.133c0,0,0,0,1.067-1.067c2.133-1.067,4.267-1.067,5.333-2.133
		c0,0,0,1.067,0,2.133c0,0-1.067,1.067-2.133,1.067c-2.133,1.067-2.133,3.2,1.067,4.267c2.133-4.267,6.4-4.267,10.667-6.4v-1.067
		c-1.067,0-2.133-1.067-3.2,0c-1.067,0-4.267-2.133-5.333-3.2c0-1.067-2.133-3.2,0-4.267c-1.067,0-2.133-1.067-3.2-1.067l0,0
		c1.067,0,1.067,0,2.133,0c1.067-1.067,2.133-1.067,3.2-2.133c0-1.067-1.067-2.133-2.133-2.133c-2.133,0-4.267,0-5.333,1.067
		c-2.133,1.067-4.267,3.2-6.4,4.267c2.133-2.133,4.267-4.267,5.333-6.4h1.067c1.067,0,1.067-1.067,2.133-1.067
		c1.067-1.067,1.067-2.133,2.133-2.133c3.2,0,7.467,0,10.667,0c2.133,0,4.267,0,6.4-2.133c2.133-1.067,3.2-3.2,5.333-3.2
		s3.2-2.133,3.2-4.267c0-1.067-1.067-2.133,0-2.133c0-1.067,0-2.133-1.067-2.133c-1.067,0-2.133,0-2.133-1.067c0,0,0-1.067,0-2.133
		c-1.067,0-2.133,1.067-3.2,1.067c-1.067-1.067-1.067-1.067,0-1.067s2.133-1.067,3.2-1.067l0,0c-2.133-1.067-4.267-2.133-7.467-3.2
		c0-1.067,0-1.067-2.133-2.133c0,0-1.067,0-1.067-1.067c-1.067-1.067-1.067-2.133-2.133-2.133c1.067-1.067,1.067-2.133,1.067-2.133
		c0-1.067-1.067-2.133-2.133-4.267c0-1.067,0-1.067-1.067-2.133l-1.067,1.067V147.2c-1.067,0-1.067,0-1.067,0
		c0-1.067,0-1.067,0-1.067c0-1.067-1.067-2.133-1.067-2.133c-1.067-1.067-1.067-3.2-2.133-4.267c0,0-1.067,0-1.067-1.067
		c-1.067,1.067-1.067,2.133-1.067,3.2c0,2.133,0,3.2-1.067,4.267c0,0-1.067,0-1.067,1.067c-1.067,1.067-2.133,2.133-2.133,3.2
		c-1.067-1.067-2.133-2.133-2.133-3.2c-1.067,0-2.133,0-3.2,0l1.067-1.067c-1.067-2.133,1.067-4.267-2.133-5.333
		c1.067,0,1.067,0,2.133,0v-4.267c-1.067,0-1.067,0-2.133,0s-1.067-1.067-2.133-1.067s-1.067-1.067-2.133-2.133
		c0-1.067-1.067-2.133-2.133-3.2c0-2.133-3.2-3.2-4.267-2.133c-1.067,1.067-2.133,1.067-4.267,0c-1.067,0-2.133-1.067-3.2-1.067
		c0,0-1.067,0-2.133,0c-2.133,1.067-1.067,3.2,1.067,4.267c-3.2,2.133-1.067,5.333,0,8.533c0,2.133,0,3.2-2.133,4.267
		c-1.067,1.067-1.067,1.067,0,2.133c2.133,1.067,3.2,4.267,3.2,6.4c0,1.067,1.067,3.2,1.067,4.267h1.067v1.067l-1.067,1.067
		c-1.067,2.133-2.133,3.2-4.267,4.267c-1.067,0-1.067,1.067-2.133,2.133c0,0,0,0,1.067,0c-5.333,5.333-4.267,8.533-3.2,11.733
		l-1.067,1.067c0,1.067,0,1.067,1.067,2.133c-1.067,0-2.133-1.067-3.2,1.067c-1.067,0-1.067,0-2.133,0c0-2.133,0-3.2-2.133-3.2
		c0-1.067,0-1.067,0-2.133c0-1.067-1.067-1.067-1.067-2.133c0-3.2,0-5.333,0-8.533c-1.067,0-3.2,0-4.267,0s-3.2,0-3.2-1.067
		c-1.067-1.067-3.2-2.133-4.267-2.133s-1.067-1.067-1.067-1.067c-3.2-3.2-6.4-6.4-11.733-4.267c0-2.133-1.067-4.267-1.067-5.333
		c0-1.067-1.067-2.133-3.2-2.133c-1.067,0-2.133-1.067-2.133-1.067c0-3.2,0-5.333,1.067-8.533c0-1.067,0-2.133,1.067-3.2
		c2.133-1.067,4.267-4.267,5.333-7.467c1.067,0,3.2,0,3.2-1.067c1.067-1.067,0-2.133,0-3.2c1.067,0,2.133,0,2.133-1.067
		s0-1.067,2.133-1.067c1.067,0,2.133,0,3.2-1.067c-2.133-4.267-1.067-6.4,0-8.533c-3.2-1.067-6.4,0-7.467-4.267
		c1.067,1.067,3.2,1.067,4.267,2.133c1.067,0,1.067,1.067,2.133,1.067s4.267-4.267,4.267-5.333c0,0,0-1.067-1.067-1.067
		c0,0,0-1.067-1.067-1.067h1.067c1.067,0,1.067,0,2.133,0c0,3.2,2.133,1.067,4.267,2.133c0-1.067,0-1.067-1.067-3.2
		c0,2.133,1.067,2.133,2.133,3.2c1.067-2.133,3.2-3.2,4.267-5.333c0-1.067,0-2.133,0-3.2c-1.067-2.133-2.133-3.2-3.2-5.333
		c3.2,0,4.267-1.067,2.133-3.2l1.067-1.067c-2.133,0-3.2-1.067-3.2-3.2c0,0,0-1.067-1.067-1.067s-1.067,0-2.133,0
		c-1.067,1.067-2.133,2.133-3.2,3.2c0,0,0,0,1.067,0c0,1.067,0,2.133,0,2.133c-1.067,0-1.067,0-2.133,1.067
		c-1.067,3.2-2.133,5.333-2.133,7.467c0,1.067-1.067,2.133-2.133,2.133c-1.067-1.067-1.067-2.133-2.133-3.2
		c-28.8,37.333-45.867,83.2-45.867,134.4c0,17.067,2.133,34.133,6.4,51.2c1.067,1.067,3.2,2.133,5.333,2.133
		c0,0,1.067,0,1.067,1.067c1.067,1.067,3.2,1.067,4.267,2.133c1.067,1.067,3.2,1.067,4.267,2.133c2.133,1.067,3.2,2.133,5.333,1.067
		s5.333-1.067,6.4,1.067c4.267,4.267,8.533,5.333,13.867,5.333c1.067,0,1.067,1.067,2.133,2.133c1.067,1.067,3.2,2.133,3.2,5.333
		c0,0,1.067,2.133,2.133,1.067c2.133,0,3.2,1.067,3.2,2.133c0,1.067,1.067,1.067,2.133,1.067s2.133,1.067,2.133,1.067
		c1.067,0,1.067,1.067,2.133,2.133l1.067-1.067c-1.067-2.133-1.067-2.133,2.133-3.2c2.133,0,3.2,1.067,3.2,1.067
		c0,2.133,1.067,3.2,2.133,5.333c1.067,2.133-1.067,4.267,1.067,6.4c-1.067,1.067-2.133,2.133-3.2,2.133l0,0
		c-1.067,3.2-4.267,4.267-5.333,8.533l0,0c0,1.067,0,2.133,0,3.2c0,0,1.067,0,2.133,0c0,1.067,0,1.067-2.133,3.2
		c-1.067,1.067-1.067,4.267,0,5.333c2.133,5.333,4.267,8.533,5.333,12.8c1.067,2.133,2.133,4.267,3.2,6.4
		c1.067,1.067,1.067,3.2,2.133,4.267c0,0,0,1.067,1.067,1.067c2.133,2.133,5.333,4.267,8.533,5.333s6.4,3.2,6.4,7.467
		c0,5.333,0,10.667-1.067,16c0,2.133,0,3.2-1.067,5.333c-1.067,2.133-1.067,4.267-1.067,5.333c11.733,8.533,23.467,16,37.333,22.4
		c0,0,0-1.067-1.067-1.067C140.239,426.667,139.172,426.667,140.239,425.6z"/>
</g>
<path style="fill:#F7B64C;" d="M191.439,345.6c0,0,11.733-28.8,43.733-66.133c32,36.267,43.733,66.133,43.733,66.133v20.267
	c3.2,6.4-3.2,34.133-43.733,54.4c-39.467-30.933-46.933-51.2-43.733-54.4V345.6z"/>
<path style="fill:#CED6E0;" d="M302.372,498.133l4.267-78.933h-71.467c-36.267,3.2-58.667,66.133-62.933,78.933H302.372z"/>
<path style="fill:#F3705A;" d="M235.172,195.2c-43.733,0-78.933,38.4-78.933,86.4c0,7.467,1.067,14.933,3.2,22.4v2.133h2.133V294.4
	c-1.067-5.333-1.067-8.533-1.067-12.8c0-44.8,33.067-81.067,73.6-81.067s73.6,36.267,73.6,81.067c0,5.333,0,9.6-1.067,14.933v9.6
	h3.2V304c2.133-7.467,3.2-14.933,3.2-22.4C314.105,233.6,277.839,195.2,235.172,195.2z"/>
<g>
	<path style="fill:#344A5E;" d="M161.572,295.467c0-2.133,130.133-29.867,135.467-14.933c4.267,14.933,6.4,22.4,6.4,22.4
		s8.533-20.267,6.4-50.133c-2.133-29.867-26.667-59.733-50.133-69.333c-23.467-9.6-52.267,5.333-52.267,5.333s-22.4,3.2-33.067,25.6
		C161.572,236.8,161.572,295.467,161.572,295.467z"/>
	<path style="fill:#344A5E;" d="M397.306,498.133l-16-60.8c-4.267-18.133-17.067-32-35.2-38.4l-51.2-19.2l-24.533,118.4
		L397.306,498.133L397.306,498.133z"/>
</g>
<path style="fill:#F3F3F3;" d="M278.905,364.8c0,0-7.467,23.467-43.733,54.4l43.733,50.133l17.067-73.6L278.905,364.8z"/>
<path style="fill:#415A6B;" d="M281.039,498.133c12.8-22.4,24.533-45.867,32-70.4l-13.867-8.533l24.533-12.8
	c0,0-22.4-23.467-42.667-35.2c0,0-12.8,96-23.467,124.8c0,1.067-1.067,2.133-1.067,3.2h24.533V498.133z"/>
<path style="fill:#344A5E;" d="M198.905,498.133l-24.533-118.4l-51.2,19.2c-16,6.4-28.8,21.333-34.133,38.4l-14.933,60.8H198.905z"
	/>
<path style="fill:#F3F3F3;" d="M191.439,364.8c-1.067,1.067,17.067,29.867,43.733,54.4l-43.733,50.133l-17.067-73.6L191.439,364.8z"
	/>
<path style="fill:#415A6B;" d="M157.305,427.733c8.533,24.533,19.2,48,32,70.4h24.533c0-1.067-1.067-2.133-1.067-3.2
	c-11.733-29.867-23.467-124.8-23.467-124.8c-19.2,11.733-42.667,35.2-42.667,35.2l24.533,12.8L157.305,427.733z"/>
<rect x="58.105" y="486.4" style="fill:#66C6B9;" width="353.067" height="25.6"/>
<path style="fill:#E8EAE9;" d="M333.306,391.467l-12.8,94.933H149.839l-13.867-94.933c-1.067-4.267,3.2-8.533,7.467-8.533h181.333
	C331.172,382.933,334.372,387.2,333.306,391.467z"/>
<path style="fill:#ADB3BA;" d="M250.105,437.333c0,5.333-6.4,9.6-14.933,9.6s-14.933-4.267-14.933-9.6s6.4-9.6,14.933-9.6
	C243.705,428.8,250.105,432,250.105,437.333z"/>
<path style="fill:#FFD15C;" d="M255.439,226.133c-10.667,21.333-30.933,36.267-61.867,36.267c-7.467,0-14.933-1.067-21.333-3.2
	c-3.2,9.6-4.267,20.267-4.267,32c0,48,29.867,86.4,67.2,86.4s67.2-38.4,67.2-86.4c0-18.133-4.267-34.133-11.733-48
	C276.772,241.067,265.039,234.667,255.439,226.133z"/>
<path style="fill:#344A5E;" d="M304.505,282.667v36.267c6.4-1.067,12.8-8.533,12.8-18.133
	C317.306,291.2,310.905,283.733,304.505,282.667z"/>
<path style="fill:#E8EAE9;" d="M294.905,282.667v36.267c0,2.133,2.133,4.267,5.333,4.267l0,0c3.2,0,5.333-2.133,5.333-4.267v-36.267
	c0-2.133-2.133-4.267-5.333-4.267l0,0C298.105,278.4,294.905,280.533,294.905,282.667z"/>
<path style="fill:#344A5E;" d="M164.772,282.667v36.267c-6.4-1.067-12.8-8.533-12.8-18.133
	C151.972,291.2,159.439,283.733,164.772,282.667z"/>
<path style="fill:#E8EAE9;" d="M174.372,282.667v36.267c0,2.133-2.133,4.267-5.333,4.267l0,0c-3.2,0-5.333-2.133-5.333-4.267
	v-36.267c0-2.133,2.133-4.267,5.333-4.267l0,0C172.239,278.4,174.372,280.533,174.372,282.667z"/>
<g>
	<path style="fill:#F3705A;" d="M158.372,34.133L122.105,105.6l-8.533-24.533c-61.867,21.333-99.2,83.2-91.733,146.133
		c-5.333-8.533-9.6-17.067-12.8-26.667C-15.495,129.067,22.905,51.2,94.372,26.667L86.905,0L158.372,34.133z"/>
	<path style="fill:#F3705A;" d="M466.639,214.4l-65.067-46.933l25.6-4.267C415.439,98.133,361.039,52.267,298.105,50.133
		c8.533-3.2,18.133-6.4,27.733-8.533c74.667-13.867,146.133,36.267,158.933,110.933l25.6-4.267L466.639,214.4z"/>
</g>
<g>
</g>
<g>
</g>
<g>
</g>
<g>
</g>
<g>
</g>
<g>
</g>
<g>
</g>
<g>
</g>
<g>
</g>
<g>
</g>
<g>
</g>
<g>
</g>
<g>
</g>
<g>
</g>
<g>
</g>
</svg>
