<?xml version="1.0" encoding="iso-8859-1"?>
<!-- Generator: Adobe Illustrator 19.0.0, SVG Export Plug-In . SVG Version: 6.00 Build 0)  -->
<svg version="1.1" id="Capa_1" xmlns="http://www.w3.org/2000/svg" xmlns:xlink="http://www.w3.org/1999/xlink" x="0px" y="0px"
	 viewBox="0 0 512.533 512.533" style="enable-background:new 0 0 512.533 512.533;" xml:space="preserve">
<path style="fill:#F3F3F3;" d="M416,31.333v438.4c0,17.067-13.867,30.933-30.933,30.933H30.933C13.867,501.733,0,486.8,0,469.733
	v-438.4C0,14.267,13.867,0.4,30.933,0.4h354.133C402.133,0.4,416,14.267,416,31.333z"/>
<rect x="213.333" y="118.8" style="fill:#F3705A;" width="161.067" height="34.133"/>
<g>
	<rect x="213.333" y="195.6" style="fill:#CED6E0;" width="161.067" height="34.133"/>
	<rect x="41.6" y="272.4" style="fill:#CED6E0;" width="332.8" height="34.133"/>
	<rect x="41.6" y="349.2" style="fill:#CED6E0;" width="332.8" height="34.133"/>
	<rect x="41.6" y="426" style="fill:#CED6E0;" width="332.8" height="34.133"/>
</g>
<rect x="41.6" y="42" style="fill:#55C0EB;" width="138.667" height="186.667"/>
<path style="fill:#F7B64C;" d="M135.467,184.933c0,0-1.067-8.533-2.133-12.8c-1.067-4.267,0-18.133,0-18.133l-41.6,3.2L89.6,171.067
	l-1.067,9.6c0,0,14.933,14.933,20.267,14.933c4.267,0,5.333,0,5.333,0l10.667-4.267L135.467,184.933z"/>
<path style="fill:#E8EAE9;" d="M136.533,229.733c4.267-19.2,6.4-33.067,6.4-33.067h-29.867c-10.667,0-37.333,4.267-37.333,4.267
	l6.4,28.8H136.533z"/>
<path style="fill:#F3705A;" d="M107.733,208.4c3.2-1.067,6.4-1.067,8.533,0c4.267-2.133,8.533-7.467,12.8-12.8
	c-11.733,1.067-22.4,1.067-33.067,0C99.2,199.867,102.4,204.133,107.733,208.4z"/>
<g>
	<path style="fill:#FFD15C;" d="M135.467,119.867C136.533,119.867,136.533,119.867,135.467,119.867
		c2.133-6.4,2.133-12.8-2.133-17.067c-3.2-3.2-9.6-5.333-13.867-5.333c-2.133,0-3.2,0-4.267,0c0,0,0,0-1.067,0
		c-1.067-1.067-3.2-1.067-4.267-1.067c-7.467,2.133-16,2.133-22.4,5.333c-2.133,1.067-4.267,3.2-5.333,6.4
		c-1.067,2.133-1.067,5.333-1.067,7.467c0,4.267,0,9.6,0,13.867c0,1.067,1.067,2.133,1.067,3.2c0,2.133-1.067,5.333-1.067,7.467
		C81.067,163.6,92.8,182.8,108.8,182.8s28.8-18.133,29.867-41.6C139.733,133.733,138.667,126.267,135.467,119.867z"/>
	
		<ellipse transform="matrix(-0.9881 -0.1536 0.1536 -0.9881 258.4539 302.4666)" style="fill:#FFD15C;" cx="140.911" cy="141.249" rx="5.333" ry="12.8"/>
	
		<ellipse transform="matrix(0.9941 -0.1086 0.1086 0.9941 -14.7322 9.5703)" style="fill:#FFD15C;" cx="80.499" cy="140.042" rx="5.333" ry="12.8"/>
</g>
<path style="fill:#344A5E;" d="M82.133,144.4L82.133,144.4c0-2.133,0-8.533,0-10.667c0-3.2,1.067-4.267,3.2-7.467
	c1.067-2.133-1.067-7.467-1.067-12.8S86.4,106,89.6,104.933c2.133-1.067,30.933,2.133,38.4,0c6.4-2.133,8.533,6.4,8.533,8.533
	s-1.067,6.4,2.133,11.733c3.2,4.267,2.133,17.067,2.133,20.267h1.067c0-2.133,1.067-9.6,2.133-13.867
	c1.067-5.333,2.133-28.8-17.067-41.6c-20.267-12.8-38.4,4.267-41.6,7.467c-4.267,3.2-8.533,12.8-7.467,21.333
	C77.867,126.267,81.067,141.2,82.133,144.4z"/>
<path style="fill:#E8EAE9;" d="M133.333,172.133c0,0,0,5.333-3.2,9.6c-3.2,4.267-16,13.867-16,13.867s7.467,1.067,9.6,3.2
	c2.133,2.133,9.6,7.467,11.733,8.533c0,0,1.067-10.667,2.133-14.933c1.067-4.267,2.133-6.4,0-11.733S134.4,174.267,133.333,172.133z
	"/>
<path style="fill:#344A5E;" d="M136.533,187.067c-1.067,5.333-2.133,26.667-3.2,41.6h22.4c5.333-17.067,5.333-19.2,5.333-19.2
	l-10.667-6.4l5.333-3.2c0,0-3.2-10.667-9.6-14.933c-6.4-4.267-3.2-2.133-5.333-5.333c-2.133-3.2-5.333-5.333-7.467-5.333
	C134.4,173.2,137.6,180.667,136.533,187.067z"/>
<path style="fill:#E8EAE9;" d="M88.533,172.133c0,0,0,5.333,3.2,9.6c3.2,4.267,16,13.867,16,13.867s-7.467,1.067-9.6,3.2
	s-9.6,7.467-11.733,8.533c0,0-1.067-10.667-2.133-14.933c-1.067-4.267-1.067-6.4,1.067-10.667
	C87.467,176.4,87.467,174.267,88.533,172.133z"/>
<g>
	<path style="fill:#344A5E;" d="M180.267,199.867v28.8H147.2c5.333-24.533,1.067-42.667,1.067-42.667s10.667,4.267,17.067,6.4
		C170.667,194.533,177.067,197.733,180.267,199.867z"/>
	<path style="fill:#344A5E;" d="M74.667,228.667H41.6v-28.8c4.267-2.133,9.6-6.4,13.867-7.467c6.4-2.133,17.067-6.4,17.067-6.4
		S69.333,205.2,74.667,228.667z"/>
	<path style="fill:#344A5E;" d="M66.133,229.733h22.4c-1.067-14.933-2.133-37.333-3.2-42.667
		c-1.067-7.467,2.133-13.867,2.133-13.867c-1.067,0-5.333,3.2-7.467,5.333c-2.133,3.2,0,1.067-5.333,5.333
		c-6.4,4.267-9.6,14.933-9.6,14.933l6.4,4.267l-11.733,6.4C59.733,209.467,59.733,212.667,66.133,229.733z"/>
</g>
<path style="fill:#F3705A;" d="M107.733,208.4c3.2-1.067,6.4-1.067,8.533,0l5.333,21.333h-19.2L107.733,208.4z"/>
<path style="fill:#415A6B;" d="M235.733,236.133c-46.933,46.933-46.933,123.733,0,170.667s123.733,46.933,171.733,0
	c46.933-46.933,46.933-123.733,0-171.733S282.667,189.2,235.733,236.133z M385.067,385.467c-35.2,35.2-91.733,35.2-126.933,0
	s-35.2-91.733,0-126.933s91.733-35.2,126.933,0C420.267,293.733,420.267,350.267,385.067,385.467z"/>
<path style="fill:#344A5E;" d="M451.2,378c5.333,5.333,5.333,14.933,0,21.333l-53.333,53.333c-5.333,5.333-14.933,5.333-21.333,0
	c-5.333-5.333-5.333-14.933,0-21.333L429.867,378C436.267,371.6,445.867,371.6,451.2,378z"/>
<path style="fill:#F3705A;" d="M501.333,501.733L501.333,501.733c14.933-14.933,14.933-38.4,0-53.333L451.2,398.267L397.867,451.6
	L448,501.733C462.933,515.6,486.4,515.6,501.333,501.733z"/>
<g>
</g>
<g>
</g>
<g>
</g>
<g>
</g>
<g>
</g>
<g>
</g>
<g>
</g>
<g>
</g>
<g>
</g>
<g>
</g>
<g>
</g>
<g>
</g>
<g>
</g>
<g>
</g>
<g>
</g>
</svg>
