<?xml version="1.0" encoding="iso-8859-1"?>
<!-- Generator: Adobe Illustrator 19.0.0, SVG Export Plug-In . SVG Version: 6.00 Build 0)  -->
<svg version="1.1" id="Capa_1" xmlns="http://www.w3.org/2000/svg" xmlns:xlink="http://www.w3.org/1999/xlink" x="0px" y="0px"
	 viewBox="0 0 512.629 512.629" style="enable-background:new 0 0 512.629 512.629;" xml:space="preserve">
<path style="fill:#F7B64C;" d="M365.306,306.263c-1.067,7.467-3.2,12.8-8.533,13.867c-5.333,1.067-16,0-29.867-6.4
	c-13.867-6.4-25.6-13.867-25.6-13.867s1.067,3.2,3.2,5.333c2.133,2.133,16,11.733,21.333,14.933
	c2.133,1.067,4.267,1.067,5.333-1.067c0,0,1.067,1.067,2.133,2.133c1.067,1.067,2.133,3.2,2.133,5.333
	c1.067,3.2,3.2,9.6-4.267,17.067c-7.467,7.467-18.133,4.267-20.267,4.267c0,0,1.067,11.733-6.4,14.933s-14.933,1.067-14.933,1.067
	s-4.267,12.8-16,10.667c-11.733-2.133-101.333-46.933-101.333-46.933l-9.6-12.8c0,0-10.667-8.533-19.2-13.867
	c-6.4-4.267-32-13.867-43.733-19.2v-108.8c11.733,5.333,38.4,18.133,43.733,22.4c7.467,5.333,28.8,14.933,41.6,13.867
	c9.6,0,36.267-6.4,50.133-8.533c5.333-1.067,11.733-1.067,17.067,1.067l30.933,13.867l78.933,78.933
	C362.106,293.463,367.439,298.796,365.306,306.263z"/>
<path style="fill:#F3F3F3;" d="M263.973,369.196c0,0-2.133,4.267,1.067,6.4c2.133,2.133,6.4,1.067,6.4,0s6.4-5.333,6.4-5.333
	s-6.4-4.267-6.4-7.467L263.973,369.196z"/>
<path style="fill:#FFD15C;" d="M415.439,153.73v104.533c-12.8,6.4-23.467,11.733-25.6,12.8c-8.533,4.267-17.067,9.6-17.067,9.6
	c-3.2,6.4-10.667,12.8-10.667,12.8s-42.667-23.467-56.533-32c-13.867-8.533-42.667-19.2-42.667-19.2
	c-8.533,1.067-18.133,5.333-18.133,5.333c-30.933,36.267-51.2,7.467-51.2,7.467l13.867-16c0,0,9.6-10.667,12.8-17.067
	c3.2-5.333,12.8-5.333,20.267-8.533s14.933-8.533,27.733-10.667c12.8-2.133,50.133,11.733,50.133,11.733l9.6-5.333
	c0,0,23.467-14.933,36.267-24.533C371.706,179.33,398.372,163.33,415.439,153.73z"/>
<path style="fill:#F3F3F3;" d="M207.439,241.196c0,0,4.267-3.2,7.467-1.067c4.267,2.133,7.467,6.4,6.4,8.533
	c-1.067,2.133-6.4,10.667-16,8.533c-9.6-2.133-10.667-4.267-10.667-4.267S202.106,243.33,207.439,241.196z"/>
<path style="fill:#FFD15C;" d="M163.706,316.93c0,0,11.733,7.467,18.133,9.6c0,0,35.2-7.467,32,13.867c0,0,5.333-2.133,9.6-1.067
	c0,0,17.067-17.067,28.8-12.8c12.8,4.267,10.667,11.733,10.667,11.733s9.6-5.333,14.933,0c6.4,5.333,4.267,14.933-3.2,21.333
	c0,0,6.4,5.333,3.2,11.733c-3.2,6.4-11.733,14.933-17.067,16c-5.333,1.067-16-2.133-21.333-6.4c0,0-6.4,0-9.6,1.067
	s-16-2.133-17.067-11.733c0,0-5.333,1.067-9.6,1.067s-7.467,0-13.867-4.267c-6.4-4.267-4.267-13.867-4.267-13.867
	s-8.533-3.2-12.8-8.533c-4.267-5.333-7.467-14.933-8.533-18.133S163.706,316.93,163.706,316.93z"/>
<g>
	<path style="fill:#F3F3F3;" d="M251.173,348.93c0,0-10.667,0-10.667-8.533c0,0,2.133-7.467,6.4-8.533s16,0,14.933,5.333
		C262.906,338.263,253.306,347.863,251.173,348.93z"/>
	<path style="fill:#F3F3F3;" d="M273.573,339.33c-1.067,0-2.133-1.067-3.2,0c-1.067,0-1.067,0-2.133,1.067
		c-1.067,1.067-5.333,5.333-5.333,8.533c0,3.2,3.2,7.467,7.467,7.467c3.2-1.067,7.467-5.333,9.6-7.467
		c1.067-1.067,1.067-3.2,0-5.333l-1.067-1.067C276.772,341.463,274.639,340.396,273.573,339.33z"/>
	<path style="fill:#F3F3F3;" d="M203.172,345.73c0,0-6.4,2.133-8.533-1.067s-2.133-6.4-1.067-7.467s6.4-4.267,6.4-4.267
		s1.067-1.067,4.267,1.067c3.2,2.133,6.4,5.333,8.533,5.333C211.706,340.396,204.239,344.663,203.172,345.73z"/>
</g>
<g>
	<path style="fill:#F7B64C;" d="M185.039,353.196L185.039,353.196c1.067,0,1.067,0,1.067,0c1.067,0,2.133,0,3.2-1.067
		c1.067,0,1.067,0,2.133-1.067c1.067,0,1.067-1.067,2.133-1.067s2.133-1.067,2.133-1.067s1.067,0,1.067-1.067l1.067-1.067
		c1.067-1.067,1.067-1.067,2.133-2.133c1.067-1.067,1.067-1.067,2.133-1.067c1.067,0,1.067-1.067,2.133-1.067
		c1.067,0,1.067-1.067,2.133-1.067c1.067-1.067,2.133-1.067,3.2-1.067c1.067,0,1.067,0,1.067,0s-2.133,1.067-4.267,2.133
		c-1.067,0-1.067,1.067-2.133,1.067c-1.067,0-1.067,1.067-2.133,1.067c-1.067,0-1.067,1.067-2.133,2.133
		c-1.067,1.067-1.067,1.067-2.133,2.133l-1.067,1.067c0,0-1.067,0-1.067,1.067c-1.067,0-2.133,1.067-2.133,1.067
		c1.067,0,0,0-1.067,0c-1.067,0-2.133,0-2.133,0c-1.067,0-3.2,0-3.2,0C186.106,353.196,185.039,353.196,185.039,353.196z"/>
	<path style="fill:#F7B64C;" d="M212.772,370.263h1.067h1.067c1.067,0,2.133,0,3.2,0c1.067,0,2.133,0,3.2-1.067h1.067h1.067
		c1.067,0,2.133-1.067,3.2-1.067c1.067,0,2.133-1.067,3.2-1.067c1.067,0,2.133-1.067,3.2-1.067c0,0,1.067,0,1.067-1.067
		c0,0,1.067,0,1.067-1.067c1.067,0,2.133-1.067,2.133-1.067c1.067,0,1.067-1.067,2.133-1.067c1.067-1.067,1.067-1.067,2.133-2.133
		c1.067-1.067,1.067-1.067,2.133-2.133c1.067-1.067,2.133-3.2,4.267-4.267c1.067-1.067,1.067-1.067,2.133-2.133
		c1.067-1.067,1.067-1.067,2.133-2.133l0,0l0,0c1.067-1.067,2.133-2.133,3.2-3.2c1.067-1.067,2.133-2.133,3.2-3.2l1.067-1.067
		l1.067-1.067l1.067-1.067c0,0,0-1.067,1.067-1.067c0,0,0-1.067,1.067-1.067v1.067c0,0,0,1.067-1.067,1.067
		c0,1.067-1.067,1.067-1.067,2.133s-1.067,1.067-1.067,2.133l-1.067,1.067c-2.133,2.133-4.267,4.267-5.333,6.4l0,0
		c-1.067,1.067-1.067,1.067-2.133,2.133c-1.067,1.067-1.067,1.067-2.133,2.133c-1.067,1.067-2.133,3.2-4.267,4.267
		c-1.067,1.067-1.067,1.067-2.133,2.133c-1.067,1.067-1.067,1.067-2.133,2.133c-1.067,1.067-2.133,1.067-2.133,2.133
		c-1.067,0-2.133,1.067-2.133,1.067s-1.067,0-1.067,1.067c0,0-1.067,0-1.067,1.067c-1.067,0-2.133,1.067-3.2,1.067
		c-1.067,0-2.133,1.067-3.2,1.067c-1.067,0-2.133,1.067-3.2,1.067h-1.067h-1.067c-1.067,0-2.133,0-3.2,0c-1.067,0-2.133,0-3.2,0
		c0,0,0,0-1.067,0c0,0,0,0-1.067,0C213.839,370.263,212.772,370.263,212.772,370.263z"/>
	<path style="fill:#F7B64C;" d="M240.506,380.93L240.506,380.93c1.067,0,1.067,0,2.133,0c1.067,0,1.067,0,2.133,0
		c1.067,0,2.133,0,2.133-1.067c1.067,0,2.133-1.067,3.2-1.067c1.067,0,2.133-1.067,3.2-2.133c1.067-1.067,2.133-1.067,3.2-2.133
		c1.067-1.067,2.133-2.133,3.2-2.133c1.067-1.067,2.133-2.133,3.2-2.133c1.067-1.067,2.133-2.133,3.2-2.133
		c2.133-2.133,3.2-3.2,5.333-4.267c3.2-2.133,5.333-4.267,5.333-4.267s0,0-1.067,1.067c-1.067,1.067-2.133,2.133-3.2,3.2
		s-3.2,3.2-5.333,4.267c-1.067,1.067-2.133,2.133-3.2,2.133c-1.067,1.067-2.133,2.133-3.2,2.133c-1.067,1.067-2.133,2.133-3.2,2.133
		c-1.067,1.067-2.133,1.067-3.2,2.133c-1.067,1.067-2.133,1.067-3.2,2.133c-1.067,0-2.133,1.067-3.2,1.067c-2.133,0-3.2,0-5.333,0
		C241.572,380.93,240.506,380.93,240.506,380.93L240.506,380.93z"/>
</g>
<path style="fill:#ED9845;" d="M311.973,347.863c0,0-2.133-1.067-4.267-2.133c-1.067,0-1.067-1.067-2.133-1.067
	c-1.067,0-1.067-1.067-2.133-1.067c-1.067,0-2.133-1.067-2.133-2.133l-1.067-1.067l-1.067-1.067
	c-1.067-1.067-1.067-1.067-2.133-2.133c-1.067-1.067-2.133-1.067-2.133-2.133c-1.067,0-1.067-1.067-2.133-1.067
	c-1.067,0-1.067-1.067-2.133-1.067c-1.067-1.067-2.133-1.067-3.2-2.133c-1.067,0-1.067-1.067-1.067-1.067l0,0
	c0,0,2.133,1.067,4.267,2.133c1.067,0,1.067,1.067,2.133,1.067c1.067,0,1.067,1.067,2.133,1.067
	c1.067,1.067,1.067,1.067,2.133,2.133c1.067,1.067,1.067,1.067,2.133,2.133l1.067,1.067l1.067,1.067
	c1.067,1.067,1.067,1.067,2.133,2.133c1.067,1.067,1.067,1.067,2.133,1.067c1.067,0,1.067,1.067,2.133,1.067
	c1.067,1.067,2.133,1.067,3.2,2.133C310.906,347.863,311.973,347.863,311.973,347.863L311.973,347.863z"/>
<rect x="359.106" y="188.171" transform="matrix(-0.8222 0.5692 -0.5692 -0.8222 820.4337 238.4628)" style="fill:#E8EAE9;" width="27.733" height="118.4"/>
<rect x="368.754" y="146.374" transform="matrix(-0.8222 0.5692 -0.5692 -0.8222 899.1339 162.2858)" style="fill:#415A6B;" width="110.933" height="150.4"/>
<circle style="fill:#344A5E;" cx="434.639" cy="268.93" r="14.933"/>
<rect x="125.952" y="185.656" transform="matrix(0.8222 0.5692 -0.5692 0.8222 164.232 -36.0494)" style="fill:#E8EAE9;" width="27.733" height="118.4"/>
<rect x="32.942" y="143.294" transform="matrix(0.8222 0.5692 -0.5692 0.8222 140.0857 -11.4738)" style="fill:#415A6B;" width="110.933" height="150.4"/>
<circle style="fill:#344A5E;" cx="78.372" cy="265.73" r="14.933"/>
<g>
</g>
<g>
</g>
<g>
</g>
<g>
</g>
<g>
</g>
<g>
</g>
<g>
</g>
<g>
</g>
<g>
</g>
<g>
</g>
<g>
</g>
<g>
</g>
<g>
</g>
<g>
</g>
<g>
</g>
</svg>
