<?xml version="1.0" encoding="iso-8859-1"?>
<!-- Generator: Adobe Illustrator 19.0.0, SVG Export Plug-In . SVG Version: 6.00 Build 0)  -->
<svg version="1.1" id="Capa_1" xmlns="http://www.w3.org/2000/svg" xmlns:xlink="http://www.w3.org/1999/xlink" x="0px" y="0px"
	 viewBox="0 0 514.349 514.349" style="enable-background:new 0 0 514.349 514.349;" xml:space="preserve">
<g>
	<path style="fill:#FFD15C;" d="M226.628,255.149l6.4,13.867c0,0-18.133,21.333-21.333,46.933c-3.2,25.6-3.2,26.667-3.2,26.667
		l-98.133-80l44.8-35.2L226.628,255.149z"/>
	<path style="fill:#FFD15C;" d="M233.028,269.016c0,0,16-9.6,22.4-11.733c7.467-2.133,14.933-16,12.8-27.733
		c-2.133-10.667,7.467-12.8-1.067-18.133c0,0,5.333-1.067,4.267-9.6c-1.067-8.533-2.133-14.933-2.133-14.933
		s14.933-3.2,17.067-8.533s-1.067-11.733-5.333-19.2c-4.267-7.467-14.933-19.2-13.867-27.733c0-8.533,7.467-13.867,6.4-17.067
		c-1.067-2.133-16-46.933-27.733-59.733c-10.667-12.8-43.733-13.867-43.733-13.867l-43.733,11.733l-61.867,89.6l4.267,86.4
		c0,0,4.267,22.4,4.267,29.867c-1.067,7.467-1.067,7.467-1.067,7.467l118.4,7.467L233.028,269.016z"/>
</g>
<path style="fill:#344A5E;" d="M100.762,227.416c0,0,21.333-10.667,19.2-52.267c-1.067-40.533,9.6-50.133,22.4-50.133
	c12.8,0,27.733,18.133,27.733,30.933l11.733-3.2c0,0-7.467-25.6,1.067-39.467c8.533-12.8,20.267-12.8,20.267-26.667
	s-1.067-24.533,17.067-28.8c18.133-4.267,36.267,10.667,39.467,20.267c0,0,13.867-12.8,10.667-30.933
	c-3.2-18.133-51.2-34.133-65.067-39.467c-13.867-4.267-51.2-16-88.533,2.133s-48,43.733-52.267,61.867
	c-4.267,18.133,0,62.933,7.467,76.8C79.428,162.349,98.628,210.349,100.762,227.416z"/>
<path style="fill:#E8EAE9;" d="M99.695,265.816l2.133-16c0-3.2,3.2-5.333,6.4-4.267c9.6,2.133,28.8,6.4,46.933,16
	c21.333,10.667,66.133,38.4,77.867,45.867c2.133,1.067,2.133,3.2,1.067,5.333l-1.067,2.133l8.533,7.467
	c1.067,1.067,2.133,3.2,1.067,5.333c-2.133,8.533-8.533,30.933-6.4,34.133c3.2,3.2-3.2,35.2-3.2,35.2l-28.8-27.733L99.695,265.816z"
	/>
<path style="fill:#344A5E;" d="M302.362,513.282c-21.333-55.467-43.733-110.933-55.467-125.867
	c-20.267-24.533-72.533-73.6-101.333-97.067s-49.067-27.733-49.067-27.733c-10.667,16-12.8,33.067-12.8,33.067
	s-45.867,24.533-60.8,43.733s-24.533,53.333-21.333,115.2c1.067,18.133,6.4,38.4,13.867,59.733h286.933V513.282z"/>
<path style="fill:#415A6B;" d="M202.095,513.282c-3.2-8.533-7.467-18.133-10.667-26.667c-9.6-28.8-33.067-74.667-48-103.467
	c-26.667-51.2-101.333-51.2-128,1.067c0,1.067-1.067,1.067-1.067,2.133c-18.133,38.4,2.133,93.867,20.267,128h167.467V513.282z"/>
<path style="fill:#CED6E0;" d="M388.762,479.149l-38.4,13.867c-4.267,1.067-8.533-1.067-10.667-5.333l-23.467-67.2l33.067-11.733
	l43.733,58.667C396.228,471.682,394.095,478.082,388.762,479.149z"/>
<path style="fill:#FFD15C;" d="M511.428,312.749c6.4,19.2-3.2,40.533-22.4,46.933l-24.533-69.333
	C483.695,282.882,505.028,293.549,511.428,312.749z"/>
<polygon style="fill:#CED6E0;" points="368.495,405.549 498.628,420.482 433.562,237.016 341.828,329.816 "/>
<g>
	<path style="fill:#F3705A;" d="M341.828,329.816l26.667,75.733l-64,22.4c-7.467,2.133-14.933-1.067-17.067-8.533l-18.133-50.133
		c-2.133-7.467,1.067-14.933,8.533-17.067L341.828,329.816z"/>
	<path style="fill:#F3705A;" d="M502.895,432.216c-6.4,2.133-14.933-1.067-17.067-8.533l-65.067-183.467
		c-2.133-6.4,1.067-14.933,8.533-17.067c6.4-2.133,14.933,1.067,17.067,8.533l65.067,183.467
		C512.495,422.616,509.295,430.082,502.895,432.216z"/>
</g>
<g>
	<path style="fill:#FFFFFF;" d="M334.362,358.616L334.362,358.616c-1.067-3.2-5.333-5.333-8.533-4.267l-30.933,10.667
		c-3.2,1.067-5.333,5.333-4.267,8.533l0,0c1.067,3.2,5.333,5.333,8.533,4.267l30.933-10.667
		C333.295,366.082,335.428,362.882,334.362,358.616z"/>
	<path style="fill:#FFFFFF;" d="M343.962,387.416L343.962,387.416c-1.067-3.2-5.333-5.333-8.533-4.267l-30.933,10.667
		c-3.2,1.067-5.333,5.333-4.267,8.533l0,0c1.067,3.2,5.333,5.333,8.533,4.267l30.933-10.667
		C343.962,394.882,346.095,391.682,343.962,387.416z"/>
</g>
<g>
</g>
<g>
</g>
<g>
</g>
<g>
</g>
<g>
</g>
<g>
</g>
<g>
</g>
<g>
</g>
<g>
</g>
<g>
</g>
<g>
</g>
<g>
</g>
<g>
</g>
<g>
</g>
<g>
</g>
</svg>
