<?xml version="1.0" encoding="iso-8859-1"?>
<!-- Generator: Adobe Illustrator 19.0.0, SVG Export Plug-In . SVG Version: 6.00 Build 0)  -->
<svg version="1.1" id="Capa_1" xmlns="http://www.w3.org/2000/svg" xmlns:xlink="http://www.w3.org/1999/xlink" x="0px" y="0px"
	 viewBox="0 0 512 512" style="enable-background:new 0 0 512 512;" xml:space="preserve">
<g>
	<path style="fill:#415A6B;" d="M212.267,129.067c0,64-25.6,116.267-57.6,116.267s-57.6-52.267-57.6-116.267
		s25.6-116.267,57.6-116.267C185.6,12.8,212.267,64,212.267,129.067z"/>
	<path style="fill:#415A6B;" d="M318.933,124.8c0,69.333-46.933,124.8-104.533,124.8s-104.533-55.467-104.533-124.8S156.8,0,214.4,0
		S318.933,55.467,318.933,124.8z"/>
</g>
<path style="fill:#344A5E;" d="M413.867,512V371.2c0-93.867-413.867-93.867-413.867,0V512H413.867z"/>
<path style="fill:#F7B64C;" d="M270.933,304c0,34.133-62.933,57.6-62.933,57.6s-62.933-23.467-62.933-57.6V177.067H272L270.933,304z
	"/>
<polygon style="fill:#CED6E0;" points="167.467,512 235.733,512 286.933,364.8 275.2,352 206.933,361.6 132.267,352 
	157.867,491.733 "/>
<g>
	<polygon style="fill:#F05540;" points="222.933,403.2 235.733,390.4 206.933,361.6 178.133,390.4 192,403.2 	"/>
	<polygon style="fill:#F05540;" points="241.067,512 222.933,403.2 192,403.2 172.8,512 	"/>
</g>
<g>
	<path style="fill:#FFD15C;" d="M306.133,129.067C249.6,126.933,211.2,99.2,188.8,60.8c-17.067,25.6-42.667,45.867-76.8,55.467
		c-5.333,16-7.467,33.067-7.467,51.2c0,74.667,45.867,135.467,103.467,135.467s103.467-60.8,103.467-135.467
		C310.4,154.667,309.333,141.867,306.133,129.067z"/>
	<path style="fill:#FFD15C;" d="M84.267,177.067C85.333,194.133,96,208,107.733,206.933s19.2-16,18.133-34.133
		c-1.067-17.067-11.733-30.933-23.467-29.867C91.733,145.067,83.2,160,84.267,177.067z"/>
	<path style="fill:#FFD15C;" d="M329.6,177.067c-1.067,17.067-11.733,30.933-23.467,29.867s-19.2-16-18.133-34.133
		c1.067-17.067,11.733-30.933,23.467-29.867C323.2,145.067,330.667,160,329.6,177.067z"/>
</g>
<polygon style="fill:#F3F3F3;" points="269.867,292.267 206.933,361.6 246.4,401.067 289.067,314.667 "/>
<path style="fill:#415A6B;" d="M269.867,512c26.667-41.6,46.933-84.267,59.733-130.133l-29.867-30.933l29.867-12.8L277.333,300.8
	c-9.6,62.933-26.667,134.4-46.933,211.2H269.867z"/>
<polygon style="fill:#F3F3F3;" points="144,292.267 206.933,361.6 168.533,401.067 125.867,314.667 "/>
<path style="fill:#415A6B;" d="M145.067,512h39.467C164.267,435.2,147.2,363.733,137.6,300.8l-52.267,37.333l29.867,12.8
	l-29.867,30.933C97.067,427.733,118.4,470.4,145.067,512z"/>
<circle style="fill:#66C6B9;" cx="400" cy="400" r="112"/>
<path style="fill:#FFFFFF;" d="M380.8,455.467c-4.267,0-9.6-2.133-12.8-5.333l-36.267-36.267c-7.467-7.467-7.467-19.2,0-25.6
	c7.467-7.467,19.2-7.467,25.6,0l23.467,23.467l52.267-52.267c7.467-7.467,19.2-7.467,25.6,0c7.467,7.467,7.467,19.2,0,25.6
	l-64,65.067C390.4,453.333,386.133,455.467,380.8,455.467z"/>
<g>
</g>
<g>
</g>
<g>
</g>
<g>
</g>
<g>
</g>
<g>
</g>
<g>
</g>
<g>
</g>
<g>
</g>
<g>
</g>
<g>
</g>
<g>
</g>
<g>
</g>
<g>
</g>
<g>
</g>
</svg>
