<?xml version="1.0" encoding="iso-8859-1"?>
<!-- Generator: Adobe Illustrator 19.0.0, SVG Export Plug-In . SVG Version: 6.00 Build 0)  -->
<svg version="1.1" id="Capa_1" xmlns="http://www.w3.org/2000/svg" xmlns:xlink="http://www.w3.org/1999/xlink" x="0px" y="0px"
	 viewBox="0 0 513.067 513.067" style="enable-background:new 0 0 513.067 513.067;" xml:space="preserve">
<path style="fill:#415A6B;" d="M473.6,103.467v284.8H24.533v-284.8c0-17.067,13.867-30.933,30.933-30.933h388.267
	C459.733,72.533,473.6,86.4,473.6,103.467z"/>
<rect x="55.467" y="103.467" style="fill:#8AD7F8;" width="388.267" height="254.933"/>
<rect x="96" y="144" style="fill:#FFFFFF;" width="307.2" height="173.867"/>
<g>
	<path style="fill:#F3705A;" d="M178.133,193.067h14.933V240c0,6.4-1.067,10.667-2.133,13.867
		c-1.067,4.267-4.267,7.467-7.467,10.667s-8.533,4.267-14.933,4.267c-7.467,0-12.8-2.133-17.067-6.4
		c-4.267-4.267-6.4-10.667-6.4-18.133l13.867-2.133c0,4.267,1.067,7.467,2.133,8.533c2.133,3.2,4.267,4.267,7.467,4.267
		c3.2,0,5.333-1.067,7.467-3.2c1.067-2.133,2.133-6.4,2.133-11.733L178.133,193.067L178.133,193.067z"/>
	<path style="fill:#F3705A;" d="M205.867,231.467c0-7.467,1.067-13.867,3.2-19.2c2.133-4.267,4.267-7.467,7.467-10.667
		c3.2-3.2,6.4-5.333,9.6-6.4c4.267-2.133,9.6-3.2,16-3.2c10.667,0,20.267,3.2,26.667,10.667c6.4,7.467,9.6,16,9.6,28.8
		c0,11.733-3.2,21.333-9.6,27.733c-6.4,6.4-14.933,10.667-26.667,10.667c-10.667,0-20.267-3.2-26.667-10.667
		C209.067,251.733,205.867,243.2,205.867,231.467z M221.867,230.4c0,8.533,2.133,14.933,5.333,19.2
		c4.267,4.267,8.533,6.4,14.933,6.4c6.4,0,10.667-2.133,14.933-6.4s5.333-10.667,5.333-19.2s-2.133-14.933-5.333-19.2
		c-4.267-4.267-8.533-6.4-14.933-6.4c-6.4,0-10.667,2.133-14.933,6.4C224,215.467,221.867,221.867,221.867,230.4z"/>
	<path style="fill:#F3705A;" d="M290.133,193.067H320c6.4,0,10.667,0,12.8,1.067c2.133,1.067,5.333,1.067,7.467,3.2
		c2.133,1.067,4.267,3.2,5.333,6.4c1.067,2.133,2.133,5.333,2.133,8.533s-1.067,6.4-3.2,9.6c-2.133,3.2-4.267,5.333-7.467,6.4
		c4.267,1.067,8.533,3.2,10.667,6.4c2.133,3.2,3.2,6.4,3.2,11.733c0,3.2-1.067,6.4-2.133,9.6c-1.067,3.2-3.2,5.333-6.4,7.467
		c-3.2,2.133-6.4,3.2-9.6,3.2c-2.133,0-8.533,0-18.133,0h-25.6v-73.6H290.133z M305.067,205.867v17.067h9.6c5.333,0,9.6,0,10.667,0
		c2.133,0,4.267-1.067,6.4-3.2c1.067-1.067,2.133-3.2,2.133-5.333s-1.067-4.267-2.133-5.333c-1.067-1.067-3.2-2.133-5.333-2.133
		c-1.067,0-5.333,0-12.8,0h-8.533V205.867z M305.067,235.733V256h13.867c5.333,0,8.533,0,10.667,0s4.267-1.067,5.333-3.2
		c1.067-2.133,2.133-3.2,2.133-6.4c0-2.133-1.067-4.267-2.133-5.333c-1.067-1.067-2.133-3.2-4.267-3.2
		c-2.133-2.133-6.4-2.133-12.8-2.133H305.067z"/>
</g>
<path style="fill:#E8EAE9;" d="M498.133,388.267c0,28.8-23.467,52.267-52.267,52.267h-393.6c-14.933,0-27.733-6.4-37.333-14.933
	C6.4,416,0,403.2,0,388.267H498.133z"/>
<path style="fill:#FFD15C;" d="M382.933,348.8l-1.067,19.2c0,0,14.933,9.6,21.333-9.6c0,0,7.467,18.133,10.667,21.333
	c3.2,4.267,9.6,8.533,9.6,8.533s-1.067,8.533,3.2,12.8c4.267,3.2,10.667,7.467,10.667,7.467s0,9.6,5.333,12.8
	S466.133,432,466.133,432s3.2,1.067,7.467-1.067c4.267-2.133,14.933-7.467,14.933-7.467s18.133,12.8,24.533,14.933V320
	L486.4,302.933c0,0-28.8,0-41.6-1.067c-12.8-1.067-33.067,4.267-33.067,4.267s-18.133,9.6-23.467,19.2
	C382.933,334.933,382.933,348.8,382.933,348.8z"/>
<g>
	<path style="fill:#F7B64C;" d="M466.133,337.067c-5.333-2.133-1.067-13.867,1.067-18.133c1.067-4.267,2.133-6.4,2.133-6.4
		s-4.267,9.6-6.4,13.867c-1.067,4.267-1.067,8.533-2.133,8.533c-1.067,0-14.933-4.267-16-5.333s1.067-10.667,0-16
		c0,0-2.133,11.733-2.133,13.867c0,0-14.933-2.133-21.333-7.467c-6.4-5.333-5.333-7.467-7.467-10.667c0,0,2.133,6.4,2.133,7.467
		c0,0-5.333-3.2-14.933-3.2c-4.267,3.2-9.6,7.467-11.733,11.733l0,0c0,4.267,1.067,9.6,3.2,11.733
		c5.333,6.4,11.733,13.867,11.733,19.2c0,0,1.067,1.067,1.067,3.2l2.133-9.6c0,0,11.733,6.4,16,8.533s4.267,4.267,3.2,5.333
		c0,0,4.267-2.133,7.467-2.133c3.2,0,12.8,4.267,20.267,8.533c7.467,4.267,11.733,6.4,11.733,6.4l-6.4-18.133l24.533-17.067
		l5.333-2.133l5.333-2.133c0,0-3.2,1.067-9.6,1.067C480,339.2,470.4,340.267,466.133,337.067z"/>
	<path style="fill:#F7B64C;" d="M423.467,387.2c1.067,1.067,1.067,1.067,2.133,1.067c1.067,0,2.133,1.067,2.133,1.067
		c1.067,0,2.133,0,3.2,0H432h1.067c0,0,0,0,1.067,0h1.067h1.067c0,0,0,0,1.067,0h1.067c1.067,0,2.133,0,3.2,0s2.133,0,3.2,0
		s2.133,0,3.2,0l3.2-1.067l3.2-1.067c2.133,0,3.2-1.067,5.333-1.067l-1.067-1.067l3.2-1.067c1.067,0,2.133,0,2.133-1.067
		c0,0,1.067,0,1.067-1.067l0,0l0,0l0,0l1.067-1.067v2.133c0,1.067,1.067,2.133,1.067,2.133c0,1.067,1.067,1.067,1.067,2.133
		c0,1.067,1.067,1.067,1.067,2.133v1.067l0,0l0,0l0,0c1.067,1.067,1.067,1.067,2.133,2.133c1.067,1.067,1.067,1.067,2.133,2.133
		c1.067,1.067,1.067,1.067,2.133,2.133c1.067,1.067,1.067,1.067,2.133,2.133c1.067,1.067,1.067,1.067,2.133,2.133
		c1.067,1.067,1.067,1.067,2.133,2.133c1.067,1.067,1.067,1.067,2.133,2.133c1.067,1.067,1.067,1.067,2.133,2.133l1.067,1.067
		c0,0,1.067,0,1.067,1.067l1.067,1.067l1.067,1.067c0,0,1.067,0,1.067,1.067l1.067,1.067c0,0,0,0,1.067,0h1.067l1.067,1.067h-1.067
		h-1.067c0,0,0,0-1.067,0l-1.067-1.067c0,0-1.067,0-1.067-1.067c0,0-1.067,0-1.067-1.067l1.067-2.133c0,0-1.067,0-1.067-1.067
		l-1.067-1.067c-1.067,0-1.067-1.067-2.133-1.067c-1.067,0-1.067-1.067-2.133-2.133c-1.067-1.067-1.067-1.067-2.133-2.133
		c-1.067-1.067-1.067-1.067-2.133-2.133c-1.067-1.067-1.067-1.067-2.133-2.133c-1.067-1.067-1.067-1.067-2.133-2.133
		c-1.067-1.067-1.067-1.067-2.133-2.133c-1.067-1.067-1.067-1.067-2.133-2.133l0,0V390.4v-1.067v-1.067
		c-1.067-1.067-1.067-1.067-2.133-2.133c0-1.067-1.067-2.133-1.067-2.133c0-1.067-1.067-2.133-1.067-3.2h2.133l0,0l0,0
		c0,0,0,0-1.067,0c0,0-1.067,0-1.067,1.067c-1.067,0-2.133,1.067-3.2,1.067l-5.333,4.267c-1.067,0-2.133,0-3.2,1.067
		c-2.133,0-3.2,1.067-5.333,1.067c-1.067,0-2.133,0-3.2,0h-3.2c-1.067,0-2.133,0-3.2,0s-2.133,0-3.2,0s-2.133,0-3.2,0h-1.067H432
		h-1.067c0,0,0,0-1.067,0H428.8h-1.067c-1.067,0-2.133,0-3.2-1.067c-1.067,0-2.133-1.067-2.133-1.067
		C424.533,388.267,424.533,388.267,423.467,387.2z"/>
	<path style="fill:#F7B64C;" d="M437.333,407.467L437.333,407.467c1.067,1.067,1.067,1.067,2.133,1.067
		c1.067,0,1.067,1.067,2.133,1.067c1.067,0,2.133,1.067,3.2,1.067s1.067,0,2.133,1.067c1.067,0,1.067,0,2.133,1.067
		c1.067,0,3.2,1.067,4.267,1.067c1.067,0,1.067,0,2.133,0c1.067,0,1.067,0,2.133,0c1.067,0,3.2,0,5.333,0c2.133,0,3.2,0,5.333,0
		c1.067,0,3.2,0,4.267-1.067h1.067h1.067c1.067,0,1.067-1.067,2.133-1.067c1.067-1.067,2.133-1.067,3.2-2.133
		c2.133-1.067,4.267-2.133,5.333-2.133c1.067-1.067,2.133-1.067,2.133-1.067s-1.067,0-2.133,1.067c-1.067,1.067-3.2,2.133-5.333,3.2
		c-1.067,1.067-2.133,1.067-3.2,2.133c-1.067,0-1.067,1.067-2.133,1.067H473.6h-1.067c-1.067,1.067-3.2,1.067-5.333,1.067
		c-2.133,0-3.2,0-5.333,0c-2.133,0-3.2,0-5.333-1.067c-1.067,0-2.133,0-2.133,0c-1.067,0-1.067,0-2.133-1.067
		c-1.067,0-3.2-1.067-4.267-1.067c-1.067-1.067-2.133-1.067-3.2-2.133c-1.067-1.067-2.133-1.067-3.2-2.133
		c-1.067-1.067-1.067-1.067-2.133-1.067C438.4,407.467,437.333,407.467,437.333,407.467z"/>
</g>
<rect x="372.047" y="274.2" transform="matrix(0.7174 0.6967 -0.6967 0.7174 309.7363 -183.1269)" style="fill:#344A5E;" width="17.067" height="32.001"/>
<path style="fill:#F3705A;" d="M445.867,327.467l-49.067-48l-26.667,26.667l49.067,48c7.467,7.467,19.2,7.467,26.667,0l0,0
	C453.333,346.667,453.333,334.933,445.867,327.467z"/>
<path style="fill:#415A6B;" d="M377.6,177.067C346.667,147.2,296.533,147.2,266.667,179.2
	C236.8,210.133,236.8,260.267,268.8,290.133C299.733,320,349.867,320,379.733,289.067C409.6,257.067,408.533,206.933,377.6,177.067z
	 M364.8,274.133c-22.4,23.467-59.733,23.467-82.133,1.067c-23.467-22.4-23.467-59.733-1.067-82.133
	C304,169.6,341.333,169.6,363.733,192C387.2,214.4,387.2,250.667,364.8,274.133z"/>
<path style="fill:#FFD15C;" d="M489.6,340.267l-24.533,38.4c0,0-18.133-11.733-27.733-14.933c-4.267-1.067-8.533-3.2-11.733-4.267
	c-7.467-3.2-14.933-6.4-21.333-11.733c-3.2-2.133-6.4-5.333-8.533-8.533c-5.333-7.467-7.467-10.667-4.267-18.133
	c3.2-7.467,12.8-6.4,18.133-5.333c5.333,2.133,25.6,10.667,29.867,12.8c4.267,2.133,8.533,4.267,11.733,5.333
	s10.667,7.467,22.4,7.467C485.333,342.4,489.6,340.267,489.6,340.267z"/>
<path style="fill:#FFFFFF;" d="M400,338.133c1.067,1.067,2.133,1.067,3.2,1.067c2.133,0,4.267,0,5.333-2.133
	c2.133-4.267,4.267-7.467,4.267-9.6s0-4.267-1.067-5.333C410.667,320,403.2,316.8,403.2,316.8s-7.467,0-8.533,6.4
	c-1.067,3.2-1.067,6.4-1.067,8.533c0,1.067,1.067,2.133,2.133,3.2C396.8,336,398.933,338.133,400,338.133z"/>
<polygon style="fill:#ADB3BA;" points="304,414.933 194.133,414.933 183.467,388.267 314.667,388.267 "/>
<g>
</g>
<g>
</g>
<g>
</g>
<g>
</g>
<g>
</g>
<g>
</g>
<g>
</g>
<g>
</g>
<g>
</g>
<g>
</g>
<g>
</g>
<g>
</g>
<g>
</g>
<g>
</g>
<g>
</g>
</svg>
