<?xml version="1.0" encoding="iso-8859-1"?>
<!-- Generator: Adobe Illustrator 19.0.0, SVG Export Plug-In . SVG Version: 6.00 Build 0)  -->
<svg version="1.1" id="Capa_1" xmlns="http://www.w3.org/2000/svg" xmlns:xlink="http://www.w3.org/1999/xlink" x="0px" y="0px"
	 viewBox="0 0 512.627 512.627" style="enable-background:new 0 0 512.627 512.627;" xml:space="preserve">
<path style="fill:#F3705A;" d="M259.556,296.631l-58.667,73.6c-2.133,2.133-4.267,3.2-7.467,3.2l-38.4-4.267l-1.067,1.067
	l24.533-85.333l78.933,6.4C259.556,291.297,260.622,294.497,259.556,296.631z"/>
<polygon style="fill:#E8EAE9;" points="252.089,296.631 200.889,360.631 163.556,357.431 182.756,291.297 "/>
<g>
	<path style="fill:#FFD15C;" d="M178.489,100.364c0,0,3.2,10.667,3.2,16c0,5.333,1.067,8.533,2.133,10.667
		c1.067,2.133-4.267,5.333-4.267,9.6c-1.067,4.267,3.2,8.533,2.133,14.933c-2.133,6.4-10.667,13.867-12.8,19.2
		c-1.067,5.333,0,9.6-4.267,11.733c-5.333,2.133-12.8,3.2-12.8,3.2s-3.2,10.667-3.2,23.467c0,12.8,0,11.733,0,11.733l-55.467-36.267
		c0,0,6.4-11.733,7.467-18.133C101.689,161.164,151.822,88.631,178.489,100.364z"/>
	<path style="fill:#FFD15C;" d="M5.689,352.097c0,0,7.467,2.133,19.2,4.267c11.733,2.133,38.4,13.867,54.4,14.933
		c16,1.067,18.133,1.067,18.133,1.067l-9.6-46.933c0,0-22.4,12.8-38.4,0s-18.133-12.8-18.133-12.8L5.689,352.097z"/>
</g>
<path style="fill:#8AD7F8;" d="M18.489,348.897l-13.867-9.6l-3.2-5.333c0,0-3.2,1.067,0-10.667s3.2-17.067,7.467-26.667
	c3.2-8.533,5.333-23.467,8.533-27.733c3.2-5.333,0-8.533,2.133-19.2c2.133-9.6,6.4-22.4,14.933-25.6s8.533-4.267,8.533-4.267
	l12.8,87.467c0,0-3.2,12.8-8.533,21.333C40.889,336.097,18.489,348.897,18.489,348.897z"/>
<g>
	<path style="fill:#55C0EB;" d="M49.422,322.231C49.422,322.231,48.356,322.231,49.422,322.231c-2.133,1.067-4.267,1.067-8.533,3.2
		c-7.467,3.2-9.6,5.333-19.2,7.467c-9.6,2.133-13.867,4.267-20.267,1.067c0,0-1.067,3.2,0,6.4c1.067,3.2,2.133,5.333,2.133,8.533
		c0,3.2,1.067,4.267,6.4,4.267c4.267,0,19.2,0,27.733-6.4c8.533-6.4,11.733-19.2,13.867-22.4"/>
	<path style="fill:#55C0EB;" d="M50.489,325.431c3.2,5.333,7.467,24.533,7.467,37.333c0,9.6,2.133,55.467,3.2,80h125.867
		c1.067-27.733,3.2-69.333,2.133-75.733c-2.133-8.533,4.267-41.6,4.267-41.6s3.2-90.667-2.133-93.867
		c-4.267-2.133-19.2-10.667-19.2-10.667l-10.667-11.733l-51.2-20.267c0,0-16,1.067-24.533,4.267s-43.733,24.533-50.133,29.867
		c-6.4,5.333-10.667,32-7.467,46.933C30.222,285.964,47.289,319.031,50.489,325.431z"/>
</g>
<path style="fill:#415A6B;" d="M463.289,442.764c0-2.133,0-4.267,0-4.267l-5.333-33.067l-101.333,2.133l-4.267,12.8
	c-3.2,7.467-5.333,14.933-6.4,22.4H463.289z"/>
<ellipse style="fill:#344A5E;" cx="468.622" cy="367.031" rx="20.267" ry="35.2"/>
<path style="fill:#FFD15C;" d="M407.822,134.497l-19.2,3.2c0,0-6.4,2.133-7.467,11.733c-1.067,9.6-3.2,13.867-2.133,16
	s-1.067,8.533-2.133,14.933c0,6.4,5.333,18.133,5.333,22.4c0,5.333,0,10.667,8.533,12.8v58.667l52.267-24.533
	c0,0-8.533-33.067-8.533-34.133c0-1.067-3.2-9.6,0-20.267c3.2-10.667,10.667-28.8,10.667-28.8S437.689,137.697,407.822,134.497z"/>
<path style="fill:#CED6E0;" d="M390.756,234.764l5.333,12.8l26.667-9.6l21.333,7.467l-8.533,162.133c0,0-35.2,21.333-77.867,7.467
	C361.956,337.164,357.689,237.964,390.756,234.764z"/>
<g>
	<path style="fill:#F3705A;" d="M385.422,401.164l-11.733,14.933l-6.4-14.933c0,0-2.133-67.2,5.333-92.8
		c8.533-25.6,19.2-50.133,19.2-50.133c4.267-2.133,6.4-2.133,8.533,1.067c-20.267,77.867-16,130.133-14.933,138.667
		C386.489,399.031,386.489,400.097,385.422,401.164z"/>
	<path style="fill:#F3705A;" d="M390.756,235.831l5.333,5.333c0,0,8.533,2.133,16-3.2c7.467-5.333,10.667-3.2,10.667-3.2l-4.267,9.6
		c0,0-14.933,9.6-17.067,14.933c0,0-4.267-2.133-8.533-1.067c0,0-2.133-14.933-6.4-19.2
		C386.489,239.031,386.489,234.764,390.756,235.831z"/>
</g>
<path style="fill:#415A6B;" d="M381.156,149.431c0,0,1.067-5.333,4.267-7.467c3.2-2.133,4.267-2.133,4.267-1.067
	c0,1.067,9.6,2.133,17.067,1.067c7.467-1.067,16,2.133,14.933,6.4s-6.4,4.267-2.133,9.6c1.067,1.067,2.133,2.133,3.2,3.2
	c3.2,3.2,4.267,7.467,4.267,11.733v3.2h4.267c0,0-1.067-6.4,4.267-8.533c5.333-2.133,9.6,5.333,9.6,5.333s5.333-6.4,5.333-20.267
	s-6.4-25.6-25.6-30.933c-19.2-5.333-37.333,9.6-40.533,12.8S380.089,145.164,381.156,149.431z"/>
<ellipse transform="matrix(0.2218 -0.9751 0.9751 0.2218 167.8623 564.6916)" style="fill:#FFD15C;" cx="437.713" cy="177.179" rx="11.733" ry="6.4"/>
<path style="fill:#F7B64C;" d="M430.222,196.364c-16,23.467-39.467,20.267-39.467,20.267v16
	C424.889,219.831,430.222,196.364,430.222,196.364z"/>
<path style="fill:#E8EAE9;" d="M433.422,210.231c0,0,0,2.133-6.4,9.6c-6.4,7.467-14.933,17.067-14.933,17.067l21.333,20.267
	l11.733-30.933c0,0-3.2-6.4-6.4-9.6C436.622,214.497,436.622,211.297,433.422,210.231z"/>
<path style="fill:#415A6B;" d="M358.756,247.564l-12.8-10.667c0,0-4.267,1.067-9.6,17.067c-5.333,16-5.333,26.667-9.6,34.133
	c-3.2,7.467-11.733,14.933-17.067,22.4c-4.267,7.467-20.267,34.133-25.6,48c-5.333,13.867-5.333,13.867-5.333,13.867l26.667,13.867
	c0,0,5.333-10.667,10.667-14.933c5.333-4.267,8.533-7.467,12.8-12.8c4.267-5.333,17.067-18.133,18.133-20.267
	C351.289,335.031,358.756,247.564,358.756,247.564z"/>
<path style="fill:#F7B64C;" d="M290.489,356.364c0,0,8.533,4.267,12.8,7.467c4.267,3.2,7.467,6.4,9.6,8.533
	c1.067,2.133,2.133,9.6-3.2,10.667c0,0,1.067,8.533-5.333,11.733c-6.4,3.2-17.067,4.267-17.067,4.267l-5.333-5.333l-2.133-6.4
	l-3.2-1.067c0,0-3.2-1.067-11.733-1.067c-8.533,0-17.067-5.333-19.2-9.6c-3.2-4.267-4.267-6.4-4.267-6.4l26.667-33.067
	c0,0,9.6,4.267,12.8,10.667C283.022,351.031,290.489,356.364,290.489,356.364z"/>
<path style="fill:#344A5E;" d="M342.756,359.564c-1.067,6.4-11.733,55.467-20.267,83.2h41.6
	c4.267-21.333,10.667-49.067,10.667-49.067s5.333-21.333,3.2-58.667c-2.133-37.333,2.133-88.533,5.333-98.133
	c3.2-9.6,5.333-12.8,5.333-12.8s-26.667,2.133-42.667,11.733c0,0,2.133,25.6,1.067,37.333
	C345.956,287.031,343.822,351.031,342.756,359.564z"/>
<path style="fill:#415A6B;" d="M389.689,223.031c0,0-12.8,6.4-17.067,12.8l2.133,3.2c0,0-7.467,5.333-9.6,9.6s1.067,56.533,3.2,73.6
	c3.2,17.067,8.533,53.333,5.333,71.467c0,0,5.333-18.133,5.333-61.867C377.956,287.031,385.422,229.431,389.689,223.031z"/>
<path style="fill:#E8EAE9;" d="M390.756,216.631c0,0,1.067,17.067,5.333,23.467c0,0-6.4-6.4-8.533-3.2
	c-2.133,3.2-3.2,7.467-3.2,7.467s1.067-10.667,3.2-18.133C389.689,219.831,390.756,216.631,390.756,216.631z"/>
<path style="fill:#344A5E;" d="M431.289,432.097c0,0,2.133,4.267,4.267,10.667h45.867c-4.267-30.933-10.667-65.067-11.733-70.4
	c-2.133-10.667-4.267-40.533-4.267-51.2s4.267-65.067,30.933-69.333l-39.467-18.133l-25.6,28.8l-23.467,89.6
	c0,0,1.067,32,2.133,38.4C413.156,396.897,421.689,415.031,431.289,432.097z"/>
<g>
	<path style="fill:#415A6B;" d="M440.889,219.831c0,0,1.067,4.267,0,7.467c-1.067,3.2-7.467,16-12.8,27.733
		c-5.333,11.733-19.2,57.6-20.267,75.733c-1.067,18.133,1.067,46.933,4.267,59.733c0,0-5.333-35.2,6.4-59.733
		c11.733-24.533,35.2-72.533,35.2-72.533l-6.4-8.533c0,0,8.533-1.067,9.6-6.4c1.067-4.267,1.067-10.667,1.067-10.667
		s-1.067-3.2-5.333-5.333C447.289,225.164,443.022,219.831,440.889,219.831z"/>
	<path style="fill:#415A6B;" d="M472.889,380.897c-1.067,0-1.067,1.067-2.133,1.067c-4.267,4.267-8.533,19.2-13.867,26.667
		c-4.267,6.4-14.933,25.6-20.267,34.133h45.867c9.6-20.267,21.333-43.733,24.533-51.2c4.267-13.867,6.4-25.6,5.333-38.4
		c-1.067-12.8-6.4-36.267-8.533-43.733s-3.2-23.467-1.067-40.533c3.2-16-5.333-18.133-5.333-18.133
		c-25.6,4.267-30.933,55.467-30.933,68.267l0,0c0,16,3.2,49.067,5.333,53.333C472.889,377.697,478.222,378.764,472.889,380.897z"/>
</g>
<g>
	<path style="fill:#FFD15C;" d="M301.156,363.831c0,0,3.2,2.133,4.267,5.333c1.067,3.2,5.333,3.2,7.467,1.067l-1.067-4.267
		c0,0-1.067-6.4-4.267-6.4C305.422,358.497,303.289,359.564,301.156,363.831z"/>
	<path style="fill:#FFD15C;" d="M275.556,385.164c0,0,4.267-1.067,5.333,0c2.133,1.067,2.133,2.133,2.133,4.267
		c0,2.133-1.067,3.2-1.067,3.2s1.067,1.067,3.2,2.133c2.133,1.067,3.2,1.067,5.333,0c2.133-1.067,6.4-2.133,7.467-1.067
		c2.133,1.067,1.067,1.067,1.067,1.067s0-2.133,2.133-2.133c2.133,0,3.2,2.133,3.2,3.2s-3.2,4.267-3.2,4.267s1.067,1.067-1.067,3.2
		c-2.133,3.2-1.067,3.2-4.267,4.267c-3.2,1.067-6.4,1.067-8.533,1.067c0,0-2.133-1.067-2.133-3.2c0,0-2.133,0-2.133-3.2
		c0,0-6.4-2.133-6.4-5.333c0-3.2,3.2-3.2,3.2-3.2l-2.133-2.133C278.756,390.497,274.489,391.564,275.556,385.164z"/>
</g>
<g>
	<path style="fill:#F7B64C;" d="M301.156,394.764C301.156,394.764,301.156,395.831,301.156,394.764c0,1.067,0,1.067,0,2.133
		c0,0,0,1.067-1.067,1.067c-1.067,1.067-3.2,2.133-6.4,3.2c-1.067,0-1.067,0-2.133,0c-1.067,0-1.067,0-2.133,0s-2.133,0-3.2,0
		c-2.133,0-3.2,0-3.2,0s1.067,0,3.2-1.067c1.067,0,2.133,0,3.2,0c1.067,0,1.067,0,2.133,0c1.067,0,1.067,0,2.133,0
		c1.067,0,2.133-1.067,3.2-1.067c1.067-1.067,2.133-1.067,2.133-2.133l1.067-1.067C301.156,396.897,301.156,395.831,301.156,394.764
		C301.156,395.831,301.156,394.764,301.156,394.764z"/>
	<path style="fill:#F7B64C;" d="M302.222,401.164L302.222,401.164c-1.067,1.067-1.067,2.133-1.067,2.133l-1.067,1.067
		c0,0-1.067,0-1.067,1.067c-1.067,0-2.133,1.067-3.2,1.067s-2.133,0-3.2,0c-1.067,0-2.133,0-3.2,0c-1.067,0-1.067,0-2.133,0h-1.067
		c0,0,0,0,1.067,0c0,0,1.067,0,2.133,0c1.067,0,2.133,0,3.2,0c1.067,0,2.133,0,3.2,0c1.067,0,2.133,0,3.2-1.067
		c0,0,1.067,0,1.067-1.067c0,0,1.067,0,1.067-1.067C301.156,402.231,302.222,402.231,302.222,401.164L302.222,401.164z"/>
</g>
<path style="fill:#8AD7F8;" d="M228.622,361.697c1.067-1.067,2.133-3.2,3.2-4.267c7.467-5.333,14.933-10.667,19.2-21.333
	c3.2-4.267,5.333-7.467,8.533-11.733c0-1.067-1.067-1.067-1.067-1.067c-2.133-2.133-4.267-5.333-4.267-5.333
	s-12.8-17.067-18.133-23.467c-4.267-6.4-6.4-7.467-7.467-12.8c-1.067-5.333-17.067-46.933-38.4-51.2c0,0-19.2,11.733-20.267,41.6
	c-1.067,29.867,13.867,49.067,19.2,52.267c5.333,3.2,35.2,37.333,35.2,37.333S226.489,361.697,228.622,361.697z"/>
<path style="fill:#55C0EB;" d="M254.222,317.964c0,0,2.133,4.267,1.067,8.533c0,3.2-6.4,13.867-9.6,18.133
	c-3.2,4.267-13.867,12.8-16,14.933c-3.2,2.133-5.333,3.2-5.333,3.2s4.267,3.2,6.4,5.333c2.133,2.133,7.467,7.467,12.8,8.533
	s14.933-9.6,19.2-17.067c3.2-7.467,9.6-21.333,6.4-25.6c-4.267-3.2-2.133-1.067-4.267-4.267
	C261.689,325.431,259.556,319.031,254.222,317.964z"/>
<path style="fill:#8AD7F8;" d="M84.622,193.164c0,0,23.467-1.067,38.4,3.2s26.667,11.733,35.2,16s12.8,8.533,12.8,8.533
	s1.067-10.667-7.467-17.067c-8.533-6.4-11.733-13.867-28.8-21.333c-13.867-5.333-30.933-6.4-38.4-6.4
	c-2.133,0-3.2,1.067-4.267,2.133C89.956,182.497,85.689,187.831,84.622,193.164z"/>
<path style="fill:#415A6B;" d="M183.822,97.164c-3.2,4.267-3.2,2.133-4.267,8.533c0,5.333,1.067,12.8-1.067,17.067
	c-2.133,4.267-6.4,9.6-7.467,18.133h-4.267c0,0-2.133-13.867-13.867-10.667c-11.733,3.2-9.6,34.133-16,38.4
	c-6.4,4.267-34.133,1.067-36.267-1.067c0,0,2.133-9.6-1.067-18.133c-3.2-7.467-13.867-48,10.667-71.467
	S189.156,88.631,183.822,97.164z"/>
<path style="fill:#FFD15C;" d="M159.289,149.431c-4.267,1.067-9.6-3.2-10.667-9.6c-1.067-6.4,1.067-12.8,5.333-13.867
	c4.267-1.067,9.6,3.2,10.667,9.6C165.689,141.964,163.556,148.364,159.289,149.431z"/>
<path style="fill:#F7B64C;" d="M151.822,185.697c0,0-5.333-4.267-8.533-8.533c0,0,2.133,6.4,6.4,12.8
	C150.756,187.831,151.822,185.697,151.822,185.697L151.822,185.697z"/>
<g>
</g>
<g>
</g>
<g>
</g>
<g>
</g>
<g>
</g>
<g>
</g>
<g>
</g>
<g>
</g>
<g>
</g>
<g>
</g>
<g>
</g>
<g>
</g>
<g>
</g>
<g>
</g>
<g>
</g>
</svg>
